# MagicaVoxel @ Ephtracy

# group
o 

# material
mtllib untitled.mtl
usemtl palette

# normals
vn -1 0 0
vn 1 0 0
vn 0 0 1
vn 0 0 -1
vn 0 -1 0
vn 0 1 0

# texcoords
vt 0.00195313 0.5
vt 0.0644531 0.5
vt 0.158203 0.5
vt 0.306641 0.5
vt 0.958984 0.5
vt 0.970703 0.5

# verts
v 0 4.3 -0.1
v 0 4.3 -0.4
v 0 4.4 -0.1
v 0 4.4 -0.4
v 0.1 2.5 -0.2
v 0.1 2.5 -0.3
v 0.1 4.3 0
v 0.1 4.3 -0.1
v 0.1 4.3 -0.2
v 0.1 4.3 -0.3
v 0.1 4.3 -0.4
v 0.1 4.3 -0.5
v 0.1 4.4 0
v 0.1 4.4 -0.1
v 0.1 4.4 -0.4
v 0.1 4.4 -0.5
v 0.1 5.8 -0.1
v 0.1 5.8 -0.4
v 0.1 5.9 -0.1
v 0.1 5.9 -0.4
v 0.2 2.2 -0.2
v 0.2 2.2 -0.3
v 0.2 2.5 -0.2
v 0.2 2.5 -0.3
v 0.2 2.6 -0.1
v 0.2 2.6 -0.2
v 0.2 2.6 -0.3
v 0.2 2.6 -0.4
v 0.2 4.3 -0.1
v 0.2 4.3 -0.2
v 0.2 4.3 -0.3
v 0.2 4.3 -0.4
v 0.2 4.4 -0.2
v 0.2 4.4 -0.3
v 0.2 5.8 -0.2
v 0.2 5.8 -0.3
v 0.3 2.1 -0.2
v 0.3 2.1 -0.3
v 0.3 2.2 -0.1
v 0.3 2.2 -0.2
v 0.3 2.2 -0.3
v 0.3 2.2 -0.4
v 0.3 2.6 -0.1
v 0.3 2.6 -0.2
v 0.3 2.6 -0.3
v 0.3 2.6 -0.4
v 0.4 2 -0.2
v 0.4 2 -0.3
v 0.4 2.1 -0.1
v 0.4 2.1 -0.2
v 0.4 2.1 -0.3
v 0.4 2.1 -0.4
v 0.4 2.2 -0.1
v 0.4 2.2 -0.2
v 0.4 2.2 -0.3
v 0.4 2.2 -0.4
v 0.5 2.3 -0.1
v 0.5 2.3 -0.2
v 0.5 2.3 -0.3
v 0.5 2.3 -0.4
v 0.5 4.1 -0.1
v 0.5 4.1 -0.2
v 0.5 4.1 -0.3
v 0.5 4.1 -0.4
v 0.4 2.3 -0.1
v 0.4 2.3 -0.2
v 0.4 2.3 -0.3
v 0.4 2.3 -0.4
v 0.4 4.1 -0.1
v 0.4 4.1 -0.2
v 0.4 4.1 -0.3
v 0.4 4.1 -0.4
v 0.5 2 -0.2
v 0.5 2 -0.3
v 0.5 2.1 -0.1
v 0.5 2.1 -0.2
v 0.5 2.1 -0.3
v 0.5 2.1 -0.4
v 0.5 2.2 -0.1
v 0.5 2.2 -0.2
v 0.5 2.2 -0.3
v 0.5 2.2 -0.4
v 0.6 2.1 -0.2
v 0.6 2.1 -0.3
v 0.6 2.2 -0.1
v 0.6 2.2 -0.2
v 0.6 2.2 -0.3
v 0.6 2.2 -0.4
v 0.6 2.6 -0.1
v 0.6 2.6 -0.2
v 0.6 2.6 -0.3
v 0.6 2.6 -0.4
v 0.7 2.2 -0.2
v 0.7 2.2 -0.3
v 0.7 2.5 -0.2
v 0.7 2.5 -0.3
v 0.7 2.6 -0.1
v 0.7 2.6 -0.2
v 0.7 2.6 -0.3
v 0.7 2.6 -0.4
v 0.7 4.3 -0.1
v 0.7 4.3 -0.2
v 0.7 4.3 -0.3
v 0.7 4.3 -0.4
v 0.7 4.4 -0.2
v 0.7 4.4 -0.3
v 0.7 5.8 -0.2
v 0.7 5.8 -0.3
v 0.8 2.5 -0.2
v 0.8 2.5 -0.3
v 0.8 4.3 0
v 0.8 4.3 -0.1
v 0.8 4.3 -0.2
v 0.8 4.3 -0.3
v 0.8 4.3 -0.4
v 0.8 4.3 -0.5
v 0.8 4.4 0
v 0.8 4.4 -0.1
v 0.8 4.4 -0.4
v 0.8 4.4 -0.5
v 0.8 5.8 -0.1
v 0.8 5.8 -0.4
v 0.8 5.9 -0.1
v 0.8 5.9 -0.4
v 0.9 4.3 -0.1
v 0.9 4.3 -0.4
v 0.9 4.4 -0.1
v 0.9 4.4 -0.4
v 0.1 4.3 0
v 0.1 4.4 0
v 0.8 4.3 0
v 0.8 4.4 0
v 0 4.3 -0.1
v 0 4.4 -0.1
v 0.1 4.3 -0.1
v 0.1 4.4 -0.1
v 0.1 5.8 -0.1
v 0.1 5.9 -0.1
v 0.2 2.6 -0.1
v 0.2 4.3 -0.1
v 0.3 2.2 -0.1
v 0.3 2.6 -0.1
v 0.4 2.1 -0.1
v 0.4 2.2 -0.1
v 0.4 2.3 -0.1
v 0.4 4.1 -0.1
v 0.5 2.1 -0.1
v 0.5 2.2 -0.1
v 0.5 2.3 -0.1
v 0.5 4.1 -0.1
v 0.6 2.2 -0.1
v 0.6 2.6 -0.1
v 0.7 2.6 -0.1
v 0.7 4.3 -0.1
v 0.8 4.3 -0.1
v 0.8 4.4 -0.1
v 0.8 5.8 -0.1
v 0.8 5.9 -0.1
v 0.9 4.3 -0.1
v 0.9 4.4 -0.1
v 0.1 2.5 -0.2
v 0.1 4.3 -0.2
v 0.2 2.2 -0.2
v 0.2 2.5 -0.2
v 0.2 2.6 -0.2
v 0.2 4.3 -0.2
v 0.2 4.4 -0.2
v 0.2 5.8 -0.2
v 0.3 2.1 -0.2
v 0.3 2.2 -0.2
v 0.3 2.6 -0.2
v 0.4 2 -0.2
v 0.4 2.1 -0.2
v 0.4 2.2 -0.2
v 0.4 2.3 -0.2
v 0.4 4.1 -0.2
v 0.5 2 -0.2
v 0.5 2.1 -0.2
v 0.5 2.2 -0.2
v 0.5 2.3 -0.2
v 0.5 4.1 -0.2
v 0.6 2.1 -0.2
v 0.6 2.2 -0.2
v 0.6 2.6 -0.2
v 0.7 2.2 -0.2
v 0.7 2.5 -0.2
v 0.7 2.6 -0.2
v 0.7 4.3 -0.2
v 0.7 4.4 -0.2
v 0.7 5.8 -0.2
v 0.8 2.5 -0.2
v 0.8 4.3 -0.2
v 0.1 2.5 -0.3
v 0.1 4.3 -0.3
v 0.2 2.2 -0.3
v 0.2 2.5 -0.3
v 0.2 2.6 -0.3
v 0.2 4.3 -0.3
v 0.2 4.4 -0.3
v 0.2 5.8 -0.3
v 0.3 2.1 -0.3
v 0.3 2.2 -0.3
v 0.3 2.6 -0.3
v 0.4 2 -0.3
v 0.4 2.1 -0.3
v 0.4 2.2 -0.3
v 0.4 2.3 -0.3
v 0.4 4.1 -0.3
v 0.5 2 -0.3
v 0.5 2.1 -0.3
v 0.5 2.2 -0.3
v 0.5 2.3 -0.3
v 0.5 4.1 -0.3
v 0.6 2.1 -0.3
v 0.6 2.2 -0.3
v 0.6 2.6 -0.3
v 0.7 2.2 -0.3
v 0.7 2.5 -0.3
v 0.7 2.6 -0.3
v 0.7 4.3 -0.3
v 0.7 4.4 -0.3
v 0.7 5.8 -0.3
v 0.8 2.5 -0.3
v 0.8 4.3 -0.3
v 0 4.3 -0.4
v 0 4.4 -0.4
v 0.1 4.3 -0.4
v 0.1 4.4 -0.4
v 0.1 5.8 -0.4
v 0.1 5.9 -0.4
v 0.2 2.6 -0.4
v 0.2 4.3 -0.4
v 0.3 2.2 -0.4
v 0.3 2.6 -0.4
v 0.4 2.1 -0.4
v 0.4 2.2 -0.4
v 0.4 2.3 -0.4
v 0.4 4.1 -0.4
v 0.5 2.1 -0.4
v 0.5 2.2 -0.4
v 0.5 2.3 -0.4
v 0.5 4.1 -0.4
v 0.6 2.2 -0.4
v 0.6 2.6 -0.4
v 0.7 2.6 -0.4
v 0.7 4.3 -0.4
v 0.8 4.3 -0.4
v 0.8 4.4 -0.4
v 0.8 5.8 -0.4
v 0.8 5.9 -0.4
v 0.9 4.3 -0.4
v 0.9 4.4 -0.4
v 0.1 4.3 -0.5
v 0.1 4.4 -0.5
v 0.8 4.3 -0.5
v 0.8 4.4 -0.5
v 0.4 2 -0.2
v 0.5 2 -0.2
v 0.4 2 -0.3
v 0.5 2 -0.3
v 0.4 2.1 -0.1
v 0.5 2.1 -0.1
v 0.3 2.1 -0.2
v 0.4 2.1 -0.2
v 0.5 2.1 -0.2
v 0.6 2.1 -0.2
v 0.3 2.1 -0.3
v 0.4 2.1 -0.3
v 0.5 2.1 -0.3
v 0.6 2.1 -0.3
v 0.4 2.1 -0.4
v 0.5 2.1 -0.4
v 0.3 2.2 -0.1
v 0.4 2.2 -0.1
v 0.5 2.2 -0.1
v 0.6 2.2 -0.1
v 0.2 2.2 -0.2
v 0.3 2.2 -0.2
v 0.4 2.2 -0.2
v 0.5 2.2 -0.2
v 0.6 2.2 -0.2
v 0.7 2.2 -0.2
v 0.2 2.2 -0.3
v 0.3 2.2 -0.3
v 0.4 2.2 -0.3
v 0.5 2.2 -0.3
v 0.6 2.2 -0.3
v 0.7 2.2 -0.3
v 0.3 2.2 -0.4
v 0.4 2.2 -0.4
v 0.5 2.2 -0.4
v 0.6 2.2 -0.4
v 0.1 2.5 -0.2
v 0.2 2.5 -0.2
v 0.7 2.5 -0.2
v 0.8 2.5 -0.2
v 0.1 2.5 -0.3
v 0.2 2.5 -0.3
v 0.7 2.5 -0.3
v 0.8 2.5 -0.3
v 0.2 2.6 -0.1
v 0.3 2.6 -0.1
v 0.6 2.6 -0.1
v 0.7 2.6 -0.1
v 0.2 2.6 -0.2
v 0.3 2.6 -0.2
v 0.6 2.6 -0.2
v 0.7 2.6 -0.2
v 0.2 2.6 -0.3
v 0.3 2.6 -0.3
v 0.6 2.6 -0.3
v 0.7 2.6 -0.3
v 0.2 2.6 -0.4
v 0.3 2.6 -0.4
v 0.6 2.6 -0.4
v 0.7 2.6 -0.4
v 0.4 4.1 -0.1
v 0.5 4.1 -0.1
v 0.4 4.1 -0.2
v 0.5 4.1 -0.2
v 0.4 4.1 -0.3
v 0.5 4.1 -0.3
v 0.4 4.1 -0.4
v 0.5 4.1 -0.4
v 0.1 4.3 0
v 0.8 4.3 0
v 0 4.3 -0.1
v 0.1 4.3 -0.1
v 0.2 4.3 -0.1
v 0.7 4.3 -0.1
v 0.8 4.3 -0.1
v 0.9 4.3 -0.1
v 0.1 4.3 -0.2
v 0.2 4.3 -0.2
v 0.7 4.3 -0.2
v 0.8 4.3 -0.2
v 0.1 4.3 -0.3
v 0.2 4.3 -0.3
v 0.7 4.3 -0.3
v 0.8 4.3 -0.3
v 0 4.3 -0.4
v 0.1 4.3 -0.4
v 0.2 4.3 -0.4
v 0.7 4.3 -0.4
v 0.8 4.3 -0.4
v 0.9 4.3 -0.4
v 0.1 4.3 -0.5
v 0.8 4.3 -0.5
v 0.1 5.8 -0.1
v 0.8 5.8 -0.1
v 0.2 5.8 -0.2
v 0.7 5.8 -0.2
v 0.2 5.8 -0.3
v 0.7 5.8 -0.3
v 0.1 5.8 -0.4
v 0.8 5.8 -0.4
v 0.4 2.3 -0.1
v 0.5 2.3 -0.1
v 0.4 2.3 -0.2
v 0.5 2.3 -0.2
v 0.4 2.3 -0.3
v 0.5 2.3 -0.3
v 0.4 2.3 -0.4
v 0.5 2.3 -0.4
v 0.1 4.4 0
v 0.8 4.4 0
v 0 4.4 -0.1
v 0.1 4.4 -0.1
v 0.8 4.4 -0.1
v 0.9 4.4 -0.1
v 0.2 4.4 -0.2
v 0.7 4.4 -0.2
v 0.2 4.4 -0.3
v 0.7 4.4 -0.3
v 0 4.4 -0.4
v 0.1 4.4 -0.4
v 0.8 4.4 -0.4
v 0.9 4.4 -0.4
v 0.1 4.4 -0.5
v 0.8 4.4 -0.5
v 0.1 5.9 -0.1
v 0.8 5.9 -0.1
v 0.1 5.9 -0.4
v 0.8 5.9 -0.4

# faces
f 3/3/1 2/3/1 1/3/1
f 4/3/1 2/3/1 3/3/1
f 9/6/1 6/6/1 5/6/1
f 10/6/1 6/6/1 9/6/1
f 13/3/1 8/3/1 7/3/1
f 14/3/1 8/3/1 13/3/1
f 15/3/1 12/3/1 11/3/1
f 16/3/1 12/3/1 15/3/1
f 19/3/1 18/3/1 17/3/1
f 20/3/1 18/3/1 19/3/1
f 23/6/1 22/6/1 21/6/1
f 24/6/1 22/6/1 23/6/1
f 29/1/1 26/1/1 25/1/1
f 30/1/1 26/1/1 29/1/1
f 31/1/1 28/1/1 27/1/1
f 32/1/1 28/1/1 31/1/1
f 35/2/1 34/2/1 33/2/1
f 36/2/1 34/2/1 35/2/1
f 40/6/1 38/6/1 37/6/1
f 41/6/1 38/6/1 40/6/1
f 43/1/1 40/1/1 39/1/1
f 44/1/1 40/1/1 43/1/1
f 45/1/1 42/1/1 41/1/1
f 46/1/1 42/1/1 45/1/1
f 50/6/1 48/6/1 47/6/1
f 51/6/1 48/6/1 50/6/1
f 53/1/1 50/1/1 49/1/1
f 54/1/1 50/1/1 53/1/1
f 55/1/1 52/1/1 51/1/1
f 56/1/1 52/1/1 55/1/1
f 61/1/1 58/1/1 57/1/1
f 62/1/1 58/1/1 61/1/1
f 63/1/1 60/1/1 59/1/1
f 64/1/1 60/1/1 63/1/1
f 65/1/2 66/1/2 69/1/2
f 69/1/2 66/1/2 70/1/2
f 67/1/2 68/1/2 71/1/2
f 71/1/2 68/1/2 72/1/2
f 73/6/2 74/6/2 76/6/2
f 76/6/2 74/6/2 77/6/2
f 75/1/2 76/1/2 79/1/2
f 79/1/2 76/1/2 80/1/2
f 77/1/2 78/1/2 81/1/2
f 81/1/2 78/1/2 82/1/2
f 83/6/2 84/6/2 86/6/2
f 86/6/2 84/6/2 87/6/2
f 85/1/2 86/1/2 89/1/2
f 89/1/2 86/1/2 90/1/2
f 87/1/2 88/1/2 91/1/2
f 91/1/2 88/1/2 92/1/2
f 93/6/2 94/6/2 95/6/2
f 95/6/2 94/6/2 96/6/2
f 97/1/2 98/1/2 101/1/2
f 101/1/2 98/1/2 102/1/2
f 99/1/2 100/1/2 103/1/2
f 103/1/2 100/1/2 104/1/2
f 105/2/2 106/2/2 107/2/2
f 107/2/2 106/2/2 108/2/2
f 109/6/2 110/6/2 113/6/2
f 113/6/2 110/6/2 114/6/2
f 111/3/2 112/3/2 117/3/2
f 117/3/2 112/3/2 118/3/2
f 115/3/2 116/3/2 119/3/2
f 119/3/2 116/3/2 120/3/2
f 121/3/2 122/3/2 123/3/2
f 123/3/2 122/3/2 124/3/2
f 125/3/2 126/3/2 127/3/2
f 127/3/2 126/3/2 128/3/2
f 131/3/3 130/3/3 129/3/3
f 132/3/3 130/3/3 131/3/3
f 135/3/3 134/3/3 133/3/3
f 136/3/3 134/3/3 135/3/3
f 142/1/3 140/1/3 139/1/3
f 144/1/3 142/1/3 141/1/3
f 145/1/3 142/1/3 144/1/3
f 146/1/3 140/1/3 142/1/3
f 146/1/3 142/1/3 145/1/3
f 147/1/3 145/1/3 144/1/3
f 147/1/3 144/1/3 143/1/3
f 148/1/3 145/1/3 147/1/3
f 149/1/3 145/1/3 148/1/3
f 150/1/3 140/1/3 146/1/3
f 151/1/3 149/1/3 148/1/3
f 151/1/3 150/1/3 149/1/3
f 152/1/3 150/1/3 151/1/3
f 153/1/3 150/1/3 152/1/3
f 154/1/3 140/1/3 150/1/3
f 154/1/3 150/1/3 153/1/3
f 157/3/3 138/3/3 137/3/3
f 158/3/3 138/3/3 157/3/3
f 159/3/3 156/3/3 155/3/3
f 160/3/3 156/3/3 159/3/3
f 164/6/3 162/6/3 161/6/3
f 165/6/3 162/6/3 164/6/3
f 166/6/3 162/6/3 165/6/3
f 170/6/3 164/6/3 163/6/3
f 170/6/3 165/6/3 164/6/3
f 171/6/3 165/6/3 170/6/3
f 173/6/3 170/6/3 169/6/3
f 174/6/3 170/6/3 173/6/3
f 177/6/3 173/6/3 172/6/3
f 178/6/3 173/6/3 177/6/3
f 180/5/3 176/5/3 175/5/3
f 181/5/3 176/5/3 180/5/3
f 182/6/3 179/6/3 178/6/3
f 183/6/3 179/6/3 182/6/3
f 185/6/3 184/6/3 183/6/3
f 186/6/3 184/6/3 185/6/3
f 187/6/3 184/6/3 186/6/3
f 189/2/3 168/2/3 167/2/3
f 190/2/3 168/2/3 189/2/3
f 191/6/3 188/6/3 187/6/3
f 191/6/3 187/6/3 186/6/3
f 192/6/3 188/6/3 191/6/3
f 193/6/4 194/6/4 196/6/4
f 196/6/4 194/6/4 197/6/4
f 197/6/4 194/6/4 198/6/4
f 195/6/4 196/6/4 202/6/4
f 196/6/4 197/6/4 202/6/4
f 202/6/4 197/6/4 203/6/4
f 201/6/4 202/6/4 205/6/4
f 205/6/4 202/6/4 206/6/4
f 204/6/4 205/6/4 209/6/4
f 209/6/4 205/6/4 210/6/4
f 207/5/4 208/5/4 212/5/4
f 212/5/4 208/5/4 213/5/4
f 210/6/4 211/6/4 214/6/4
f 214/6/4 211/6/4 215/6/4
f 215/6/4 216/6/4 217/6/4
f 217/6/4 216/6/4 218/6/4
f 218/6/4 216/6/4 219/6/4
f 199/2/4 200/2/4 221/2/4
f 221/2/4 200/2/4 222/2/4
f 219/6/4 220/6/4 223/6/4
f 218/6/4 219/6/4 223/6/4
f 223/6/4 220/6/4 224/6/4
f 225/3/4 226/3/4 227/3/4
f 227/3/4 226/3/4 228/3/4
f 231/1/4 232/1/4 234/1/4
f 233/1/4 234/1/4 236/1/4
f 236/1/4 234/1/4 237/1/4
f 234/1/4 232/1/4 238/1/4
f 237/1/4 234/1/4 238/1/4
f 236/1/4 237/1/4 239/1/4
f 235/1/4 236/1/4 239/1/4
f 239/1/4 237/1/4 240/1/4
f 240/1/4 237/1/4 241/1/4
f 238/1/4 232/1/4 242/1/4
f 240/1/4 241/1/4 243/1/4
f 241/1/4 242/1/4 243/1/4
f 243/1/4 242/1/4 244/1/4
f 244/1/4 242/1/4 245/1/4
f 242/1/4 232/1/4 246/1/4
f 245/1/4 242/1/4 246/1/4
f 229/3/4 230/3/4 249/3/4
f 249/3/4 230/3/4 250/3/4
f 247/3/4 248/3/4 251/3/4
f 251/3/4 248/3/4 252/3/4
f 253/3/4 254/3/4 255/3/4
f 255/3/4 254/3/4 256/3/4
f 259/6/5 258/6/5 257/6/5
f 260/6/5 258/6/5 259/6/5
f 264/1/5 262/1/5 261/1/5
f 265/1/5 262/1/5 264/1/5
f 267/6/5 264/6/5 263/6/5
f 268/6/5 264/6/5 267/6/5
f 269/6/5 266/6/5 265/6/5
f 270/6/5 266/6/5 269/6/5
f 271/1/5 269/1/5 268/1/5
f 272/1/5 269/1/5 271/1/5
f 278/1/5 274/1/5 273/1/5
f 279/1/5 274/1/5 278/1/5
f 280/1/5 276/1/5 275/1/5
f 281/1/5 276/1/5 280/1/5
f 283/6/5 278/6/5 277/6/5
f 284/6/5 278/6/5 283/6/5
f 287/6/5 282/6/5 281/6/5
f 288/6/5 282/6/5 287/6/5
f 289/1/5 285/1/5 284/1/5
f 290/1/5 285/1/5 289/1/5
f 291/1/5 287/1/5 286/1/5
f 292/1/5 287/1/5 291/1/5
f 297/6/5 294/6/5 293/6/5
f 298/6/5 294/6/5 297/6/5
f 299/6/5 296/6/5 295/6/5
f 300/6/5 296/6/5 299/6/5
f 305/1/5 302/1/5 301/1/5
f 306/1/5 302/1/5 305/1/5
f 307/1/5 304/1/5 303/1/5
f 308/1/5 304/1/5 307/1/5
f 313/1/5 310/1/5 309/1/5
f 314/1/5 310/1/5 313/1/5
f 315/1/5 312/1/5 311/1/5
f 316/1/5 312/1/5 315/1/5
f 319/1/5 318/1/5 317/1/5
f 320/1/5 318/1/5 319/1/5
f 323/1/5 322/1/5 321/1/5
f 324/1/5 322/1/5 323/1/5
f 328/3/5 326/3/5 325/3/5
f 329/3/5 326/3/5 328/3/5
f 330/3/5 326/3/5 329/3/5
f 331/3/5 326/3/5 330/3/5
f 333/3/5 328/3/5 327/3/5
f 333/3/5 329/3/5 328/3/5
f 334/3/5 329/3/5 333/3/5
f 335/3/5 332/3/5 331/3/5
f 335/3/5 331/3/5 330/3/5
f 336/3/5 332/3/5 335/3/5
f 337/3/5 333/3/5 327/3/5
f 340/3/5 332/3/5 336/3/5
f 341/3/5 338/3/5 337/3/5
f 341/3/5 337/3/5 327/3/5
f 342/3/5 338/3/5 341/3/5
f 343/3/5 338/3/5 342/3/5
f 344/3/5 340/3/5 339/3/5
f 345/3/5 332/3/5 340/3/5
f 345/3/5 340/3/5 344/3/5
f 346/3/5 332/3/5 345/3/5
f 347/3/5 343/3/5 342/3/5
f 347/3/5 344/3/5 343/3/5
f 347/3/5 345/3/5 344/3/5
f 348/3/5 345/3/5 347/3/5
f 351/3/5 350/3/5 349/3/5
f 352/3/5 350/3/5 351/3/5
f 353/3/5 351/3/5 349/3/5
f 354/3/5 350/3/5 352/3/5
f 355/3/5 353/3/5 349/3/5
f 355/3/5 354/3/5 353/3/5
f 356/3/5 350/3/5 354/3/5
f 356/3/5 354/3/5 355/3/5
f 357/1/6 358/1/6 359/1/6
f 359/1/6 358/1/6 360/1/6
f 361/1/6 362/1/6 363/1/6
f 363/1/6 362/1/6 364/1/6
f 365/3/6 366/3/6 368/3/6
f 368/3/6 366/3/6 369/3/6
f 367/3/6 368/3/6 371/3/6
f 369/3/6 370/3/6 371/3/6
f 368/3/6 369/3/6 371/3/6
f 371/3/6 370/3/6 372/3/6
f 367/3/6 371/3/6 373/3/6
f 372/3/6 370/3/6 374/3/6
f 367/3/6 373/3/6 375/3/6
f 373/3/6 374/3/6 375/3/6
f 375/3/6 374/3/6 376/3/6
f 374/3/6 370/3/6 377/3/6
f 376/3/6 374/3/6 377/3/6
f 377/3/6 370/3/6 378/3/6
f 376/3/6 377/3/6 379/3/6
f 379/3/6 377/3/6 380/3/6
f 381/3/6 382/3/6 383/3/6
f 383/3/6 382/3/6 384/3/6
