# MagicaVoxel @ Ephtracy

# group
o 

# material
mtllib PlayerFull-1.mtl
usemtl palette

# normals
vn -1 0 0
vn 1 0 0
vn 0 0 1
vn 0 0 -1
vn 0 -1 0
vn 0 1 0

# texcoords
vt 0.0332031 0.5
vt 0.306641 0.5
vt 0.876953 0.5
vt 0.994141 0.5

# verts
v 1.7 0.9 0.1
v 1.7 0.9 -0.3
v 1.7 1.5 0.1
v 1.7 1.5 -0.3
v 2 0.2 0.7
v 2 0.2 -1
v 2 0.6 0.7
v 2 0.6 -0.1
v 2 0.7 -0.1
v 2 0.7 -0.3
v 2 0.8 -0.3
v 2 0.8 -0.4
v 2 0.9 0.1
v 2 0.9 -0.3
v 2 1.5 0.1
v 2 1.5 -0.3
v 2 1.5 -0.4
v 2 1.6 0.2
v 2 1.6 0.1
v 2 1.7 0.7
v 2 1.7 0.2
v 2 1.8 1
v 2 1.8 0.7
v 2 2.1 1
v 2 2.1 -1
v 2.4 0 0.3
v 2.4 0 -0.6
v 2.4 0.2 0.3
v 2.4 0.2 -0.6
v 2.5 1.7 1
v 2.5 1.7 0.7
v 2.5 1.8 1
v 2.5 1.8 0.7
v 2.6 1.6 1
v 2.6 1.6 0.7
v 2.6 1.7 1
v 2.6 1.7 0.7
v 2.8 0.8 0.8
v 2.8 0.8 0.7
v 2.8 0.9 0.8
v 2.8 0.9 0.7
v 2.8 1.5 1
v 2.8 1.5 0.7
v 2.8 1.6 1
v 2.8 1.6 0.7
v 2.9 0.9 0.8
v 2.9 0.9 0.7
v 2.9 1 0.8
v 2.9 1 0.7
v 3.1 0.9 0.8
v 3.1 0.9 0.7
v 3.1 1 0.8
v 3.1 1 0.7
v 3.2 0.8 0.8
v 3.2 0.8 0.7
v 3.2 0.9 0.8
v 3.2 0.9 0.7
v 3.2 1.5 1
v 3.2 1.5 0.7
v 3.2 1.6 1
v 3.2 1.6 0.7
v 3.4 1.6 1
v 3.4 1.6 0.7
v 3.4 1.7 1
v 3.4 1.7 0.7
v 3.5 1.7 1
v 3.5 1.7 0.7
v 3.5 1.8 1
v 3.5 1.8 0.7
v 3.6 0 0.3
v 3.6 0 -0.6
v 3.6 0.2 0.3
v 3.6 0.2 -0.6
v 4 0.2 0.7
v 4 0.2 -1
v 4 0.6 0.7
v 4 0.6 -0.2
v 4 0.7 -0.2
v 4 0.7 -0.3
v 4 0.8 -0.3
v 4 0.8 -0.4
v 4 0.9 0.1
v 4 0.9 -0.3
v 4 1.5 0.1
v 4 1.5 -0.3
v 4 1.5 -0.4
v 4 1.6 0.2
v 4 1.6 0.1
v 4 1.7 0.7
v 4 1.7 0.2
v 4 1.8 1
v 4 1.8 0.7
v 4 2.1 1
v 4 2.1 -1
v 4.3 0.9 0.1
v 4.3 0.9 -0.3
v 4.3 1.5 0.1
v 4.3 1.5 -0.3
v 2 1.8 1
v 2 2.1 1
v 2.5 1.7 1
v 2.5 1.8 1
v 2.6 1.6 1
v 2.6 1.7 1
v 2.8 1.5 1
v 2.8 1.6 1
v 3.2 1.5 1
v 3.2 1.6 1
v 3.4 1.6 1
v 3.4 1.7 1
v 3.5 1.7 1
v 3.5 1.8 1
v 4 1.8 1
v 4 2.1 1
v 2.8 0.8 0.8
v 2.8 0.9 0.8
v 2.9 0.9 0.8
v 2.9 1 0.8
v 3.1 0.9 0.8
v 3.1 1 0.8
v 3.2 0.8 0.8
v 3.2 0.9 0.8
v 2 0.2 0.7
v 2 0.6 0.7
v 2 1.7 0.7
v 2 1.8 0.7
v 2.2 1.2 0.7
v 2.2 1.4 0.7
v 2.4 1 0.7
v 2.4 1.2 0.7
v 2.5 1.7 0.7
v 2.5 1.8 0.7
v 2.6 0.3 0.7
v 2.6 0.5 0.7
v 2.6 1.6 0.7
v 2.6 1.7 0.7
v 2.7 1 0.7
v 2.7 1.2 0.7
v 2.8 0.8 0.7
v 2.8 0.9 0.7
v 2.8 1.2 0.7
v 2.8 1.4 0.7
v 2.8 1.5 0.7
v 2.8 1.6 0.7
v 2.9 0.9 0.7
v 2.9 1 0.7
v 3.1 0.9 0.7
v 3.1 1 0.7
v 3.2 0.8 0.7
v 3.2 0.9 0.7
v 3.2 1.2 0.7
v 3.2 1.4 0.7
v 3.2 1.5 0.7
v 3.2 1.6 0.7
v 3.3 1 0.7
v 3.3 1.2 0.7
v 3.4 0.3 0.7
v 3.4 0.5 0.7
v 3.4 1.6 0.7
v 3.4 1.7 0.7
v 3.5 1.7 0.7
v 3.5 1.8 0.7
v 3.6 1 0.7
v 3.6 1.2 0.7
v 3.8 1.2 0.7
v 3.8 1.4 0.7
v 4 0.2 0.7
v 4 0.6 0.7
v 4 1.7 0.7
v 4 1.8 0.7
v 2.4 0 0.3
v 2.4 0.2 0.3
v 3.6 0 0.3
v 3.6 0.2 0.3
v 1.7 0.9 0.1
v 1.7 1.5 0.1
v 2 0.9 0.1
v 2 1.5 0.1
v 4 0.9 0.1
v 4 1.5 0.1
v 4.3 0.9 0.1
v 4.3 1.5 0.1
v 1.7 0.9 -0.3
v 1.7 1.5 -0.3
v 2 0.9 -0.3
v 2 1.5 -0.3
v 4 0.9 -0.3
v 4 1.5 -0.3
v 4.3 0.9 -0.3
v 4.3 1.5 -0.3
v 2.4 0 -0.6
v 2.4 0.2 -0.6
v 3.6 0 -0.6
v 3.6 0.2 -0.6
v 2 0.2 -1
v 2 2.1 -1
v 4 0.2 -1
v 4 2.1 -1
v 2.4 0 0.3
v 3.6 0 0.3
v 2.4 0 -0.6
v 3.6 0 -0.6
v 2 0.2 0.7
v 4 0.2 0.7
v 2.1 0.2 0.6
v 3.9 0.2 0.6
v 2.4 0.2 0.3
v 3.6 0.2 0.3
v 2.4 0.2 -0.6
v 3.6 0.2 -0.6
v 2.1 0.2 -0.9
v 3.9 0.2 -0.9
v 2 0.2 -1
v 4 0.2 -1
v 2.8 0.8 0.8
v 3.2 0.8 0.8
v 2.8 0.8 0.7
v 3.2 0.8 0.7
v 1.7 0.9 0.1
v 2 0.9 0.1
v 4 0.9 0.1
v 4.3 0.9 0.1
v 1.7 0.9 -0.3
v 2 0.9 -0.3
v 4 0.9 -0.3
v 4.3 0.9 -0.3
v 2.8 1.5 1
v 3.2 1.5 1
v 2.8 1.5 0.7
v 3.2 1.5 0.7
v 2.6 1.6 1
v 2.8 1.6 1
v 3.2 1.6 1
v 3.4 1.6 1
v 2.6 1.6 0.7
v 2.8 1.6 0.7
v 3.2 1.6 0.7
v 3.4 1.6 0.7
v 2.5 1.7 1
v 2.6 1.7 1
v 3.4 1.7 1
v 3.5 1.7 1
v 2.5 1.7 0.7
v 2.6 1.7 0.7
v 3.4 1.7 0.7
v 3.5 1.7 0.7
v 2 1.8 1
v 2.5 1.8 1
v 3.5 1.8 1
v 4 1.8 1
v 2 1.8 0.7
v 2.5 1.8 0.7
v 3.5 1.8 0.7
v 4 1.8 0.7
v 2.8 0.9 0.8
v 2.9 0.9 0.8
v 3.1 0.9 0.8
v 3.2 0.9 0.8
v 2.8 0.9 0.7
v 2.9 0.9 0.7
v 3.1 0.9 0.7
v 3.2 0.9 0.7
v 2.9 1 0.8
v 3.1 1 0.8
v 2.9 1 0.7
v 3.1 1 0.7
v 1.7 1.5 0.1
v 2 1.5 0.1
v 4 1.5 0.1
v 4.3 1.5 0.1
v 1.7 1.5 -0.3
v 2 1.5 -0.3
v 4 1.5 -0.3
v 4.3 1.5 -0.3
v 2 2.1 1
v 4 2.1 1
v 2 2.1 -1
v 4 2.1 -1

# faces
f 3/1/1 2/1/1 1/1/1
f 4/1/1 2/1/1 3/1/1
f 7/3/1 6/3/1 5/3/1
f 8/3/1 6/3/1 7/3/1
f 9/1/1 8/1/1 7/1/1
f 9/3/1 6/3/1 8/3/1
f 10/3/1 6/3/1 9/3/1
f 11/1/1 10/1/1 9/1/1
f 11/3/1 6/3/1 10/3/1
f 12/3/1 6/3/1 11/3/1
f 13/1/1 9/1/1 7/1/1
f 13/1/1 11/1/1 9/1/1
f 13/1/1 12/1/1 11/1/1
f 14/1/1 12/1/1 13/1/1
f 15/1/1 13/1/1 7/1/1
f 16/1/1 12/1/1 14/1/1
f 17/3/1 6/3/1 12/3/1
f 17/1/1 12/1/1 16/1/1
f 18/1/1 15/1/1 7/1/1
f 19/3/1 16/3/1 15/3/1
f 19/1/1 15/1/1 18/1/1
f 19/3/1 17/3/1 16/3/1
f 20/1/1 18/1/1 7/1/1
f 21/3/1 19/3/1 18/3/1
f 21/1/1 18/1/1 20/1/1
f 23/3/1 21/3/1 20/3/1
f 24/3/1 23/3/1 22/3/1
f 25/3/1 17/3/1 19/3/1
f 25/3/1 23/3/1 24/3/1
f 25/3/1 6/3/1 17/3/1
f 25/3/1 21/3/1 23/3/1
f 25/3/1 19/3/1 21/3/1
f 28/1/1 27/1/1 26/1/1
f 29/1/1 27/1/1 28/1/1
f 32/3/1 31/3/1 30/3/1
f 33/3/1 31/3/1 32/3/1
f 36/3/1 35/3/1 34/3/1
f 37/3/1 35/3/1 36/3/1
f 40/1/1 39/1/1 38/1/1
f 41/1/1 39/1/1 40/1/1
f 44/3/1 43/3/1 42/3/1
f 45/3/1 43/3/1 44/3/1
f 48/1/1 47/1/1 46/1/1
f 49/1/1 47/1/1 48/1/1
f 50/1/2 51/1/2 52/1/2
f 52/1/2 51/1/2 53/1/2
f 54/1/2 55/1/2 56/1/2
f 56/1/2 55/1/2 57/1/2
f 58/3/2 59/3/2 60/3/2
f 60/3/2 59/3/2 61/3/2
f 62/3/2 63/3/2 64/3/2
f 64/3/2 63/3/2 65/3/2
f 66/3/2 67/3/2 68/3/2
f 68/3/2 67/3/2 69/3/2
f 70/1/2 71/1/2 72/1/2
f 72/1/2 71/1/2 73/1/2
f 74/3/2 75/3/2 76/3/2
f 76/3/2 75/3/2 77/3/2
f 76/1/2 77/1/2 78/1/2
f 77/3/2 75/3/2 78/3/2
f 78/3/2 75/3/2 79/3/2
f 78/1/2 79/1/2 80/1/2
f 79/3/2 75/3/2 80/3/2
f 80/3/2 75/3/2 81/3/2
f 76/1/2 78/1/2 82/1/2
f 78/1/2 80/1/2 82/1/2
f 80/1/2 81/1/2 82/1/2
f 82/1/2 81/1/2 83/1/2
f 76/1/2 82/1/2 84/1/2
f 83/1/2 81/1/2 85/1/2
f 81/3/2 75/3/2 86/3/2
f 85/1/2 81/1/2 86/1/2
f 76/1/2 84/1/2 87/1/2
f 84/3/2 85/3/2 88/3/2
f 87/1/2 84/1/2 88/1/2
f 85/3/2 86/3/2 88/3/2
f 76/1/2 87/1/2 89/1/2
f 87/3/2 88/3/2 90/3/2
f 89/1/2 87/1/2 90/1/2
f 89/3/2 90/3/2 92/3/2
f 91/3/2 92/3/2 93/3/2
f 88/3/2 86/3/2 94/3/2
f 93/3/2 92/3/2 94/3/2
f 86/3/2 75/3/2 94/3/2
f 92/3/2 90/3/2 94/3/2
f 90/3/2 88/3/2 94/3/2
f 95/1/2 96/1/2 97/1/2
f 97/1/2 96/1/2 98/1/2
f 102/3/3 100/3/3 99/3/3
f 104/3/3 102/3/3 101/3/3
f 106/3/3 104/3/3 103/3/3
f 107/3/3 106/3/3 105/3/3
f 108/3/3 104/3/3 106/3/3
f 108/3/3 106/3/3 107/3/3
f 109/3/3 104/3/3 108/3/3
f 110/3/3 102/3/3 104/3/3
f 110/3/3 104/3/3 109/3/3
f 111/3/3 102/3/3 110/3/3
f 112/3/3 100/3/3 102/3/3
f 112/3/3 102/3/3 111/3/3
f 113/3/3 100/3/3 112/3/3
f 114/3/3 100/3/3 113/3/3
f 117/1/3 116/1/3 115/1/3
f 119/1/3 117/1/3 115/1/3
f 119/1/3 118/1/3 117/1/3
f 120/1/3 118/1/3 119/1/3
f 121/1/3 119/1/3 115/1/3
f 122/1/3 119/1/3 121/1/3
f 127/1/3 125/1/3 124/1/3
f 128/1/3 125/1/3 127/1/3
f 129/1/3 127/1/3 124/1/3
f 130/3/3 128/3/3 127/3/3
f 130/1/3 127/1/3 129/1/3
f 131/3/3 126/3/3 125/3/3
f 131/1/3 125/1/3 128/1/3
f 132/3/3 126/3/3 131/3/3
f 133/3/3 124/3/3 123/3/3
f 134/3/3 124/3/3 133/3/3
f 135/1/3 131/1/3 128/1/3
f 136/1/3 131/1/3 135/1/3
f 137/3/3 130/3/3 129/3/3
f 137/1/3 129/1/3 124/1/3
f 138/3/3 128/3/3 130/3/3
f 138/3/3 130/3/3 137/3/3
f 139/1/3 137/1/3 124/1/3
f 139/1/3 138/1/3 137/1/3
f 140/1/3 138/1/3 139/1/3
f 141/3/3 128/3/3 138/3/3
f 141/1/3 138/1/3 140/1/3
f 142/1/3 135/1/3 128/1/3
f 142/3/3 128/3/3 141/3/3
f 143/1/3 135/1/3 142/1/3
f 144/1/3 135/1/3 143/1/3
f 145/1/3 141/1/3 140/1/3
f 145/1/3 143/1/3 142/1/3
f 145/1/3 142/1/3 141/1/3
f 146/1/3 143/1/3 145/1/3
f 148/1/3 143/1/3 146/1/3
f 149/1/3 139/1/3 124/1/3
f 150/1/3 148/1/3 147/1/3
f 151/1/3 143/1/3 148/1/3
f 151/1/3 148/1/3 150/1/3
f 152/1/3 143/1/3 151/1/3
f 153/1/3 143/1/3 152/1/3
f 155/1/3 150/1/3 149/1/3
f 155/1/3 151/1/3 150/1/3
f 156/3/3 152/3/3 151/3/3
f 156/1/3 151/1/3 155/1/3
f 157/3/3 133/3/3 123/3/3
f 157/1/3 134/1/3 133/1/3
f 158/3/3 124/3/3 134/3/3
f 158/1/3 134/1/3 157/1/3
f 159/1/3 154/1/3 153/1/3
f 159/1/3 153/1/3 152/1/3
f 161/1/3 160/1/3 159/1/3
f 163/3/3 156/3/3 155/3/3
f 163/1/3 155/1/3 149/1/3
f 164/3/3 152/3/3 156/3/3
f 164/3/3 156/3/3 163/3/3
f 165/1/3 164/1/3 163/1/3
f 165/3/3 152/3/3 164/3/3
f 166/1/3 159/1/3 152/1/3
f 166/3/3 152/3/3 165/3/3
f 166/1/3 161/1/3 159/1/3
f 167/3/3 158/3/3 157/3/3
f 167/3/3 157/3/3 123/3/3
f 168/1/3 165/1/3 163/1/3
f 168/3/3 158/3/3 167/3/3
f 168/1/3 149/1/3 124/1/3
f 168/1/3 166/1/3 165/1/3
f 168/3/3 124/3/3 158/3/3
f 168/1/3 163/1/3 149/1/3
f 169/1/3 161/1/3 166/1/3
f 169/1/3 166/1/3 168/1/3
f 169/3/3 162/3/3 161/3/3
f 170/3/3 162/3/3 169/3/3
f 173/1/3 172/1/3 171/1/3
f 174/1/3 172/1/3 173/1/3
f 177/1/3 176/1/3 175/1/3
f 178/1/3 176/1/3 177/1/3
f 181/1/3 180/1/3 179/1/3
f 182/1/3 180/1/3 181/1/3
f 183/1/4 184/1/4 185/1/4
f 185/1/4 184/1/4 186/1/4
f 187/1/4 188/1/4 189/1/4
f 189/1/4 188/1/4 190/1/4
f 191/1/4 192/1/4 193/1/4
f 193/1/4 192/1/4 194/1/4
f 195/3/4 196/3/4 197/3/4
f 197/3/4 196/3/4 198/3/4
f 201/1/5 200/1/5 199/1/5
f 202/1/5 200/1/5 201/1/5
f 205/3/5 204/3/5 203/3/5
f 206/3/5 204/3/5 205/3/5
f 207/1/5 206/1/5 205/1/5
f 208/1/5 206/1/5 207/1/5
f 209/1/5 207/1/5 205/1/5
f 210/1/5 206/1/5 208/1/5
f 211/3/5 205/3/5 203/3/5
f 211/1/5 210/1/5 209/1/5
f 211/1/5 209/1/5 205/1/5
f 212/1/5 206/1/5 210/1/5
f 212/1/5 210/1/5 211/1/5
f 212/3/5 204/3/5 206/3/5
f 213/3/5 211/3/5 203/3/5
f 213/3/5 212/3/5 211/3/5
f 214/3/5 204/3/5 212/3/5
f 214/3/5 212/3/5 213/3/5
f 217/1/5 216/1/5 215/1/5
f 218/1/5 216/1/5 217/1/5
f 223/1/5 220/1/5 219/1/5
f 224/1/5 220/1/5 223/1/5
f 225/1/5 222/1/5 221/1/5
f 226/1/5 222/1/5 225/1/5
f 229/3/5 228/3/5 227/3/5
f 230/3/5 228/3/5 229/3/5
f 235/3/5 232/3/5 231/3/5
f 236/3/5 232/3/5 235/3/5
f 237/3/5 234/3/5 233/3/5
f 238/3/5 234/3/5 237/3/5
f 243/3/5 240/3/5 239/3/5
f 244/3/5 240/3/5 243/3/5
f 245/3/5 242/3/5 241/3/5
f 246/3/5 242/3/5 245/3/5
f 251/3/5 248/3/5 247/3/5
f 252/3/5 248/3/5 251/3/5
f 253/3/5 250/3/5 249/3/5
f 254/3/5 250/3/5 253/3/5
f 255/1/6 256/1/6 259/1/6
f 259/1/6 256/1/6 260/1/6
f 257/1/6 258/1/6 261/1/6
f 261/1/6 258/1/6 262/1/6
f 263/1/6 264/1/6 265/1/6
f 265/1/6 264/1/6 266/1/6
f 267/1/6 268/1/6 271/1/6
f 271/1/6 268/1/6 272/1/6
f 269/1/6 270/1/6 273/1/6
f 273/1/6 270/1/6 274/1/6
f 275/3/6 276/3/6 277/3/6
f 277/3/6 276/3/6 278/3/6
