# MagicaVoxel @ Ephtracy

# group
o 

# material
mtllib PlayerFull-3.mtl
usemtl palette

# normals
vn -1 0 0
vn 1 0 0
vn 0 0 1
vn 0 0 -1
vn 0 -1 0
vn 0 1 0

# texcoords
vt 0.689453 0.5
vt 0.720703 0.5

# verts
v -2 1.6 1.1
v -2 1.6 -1.1
v -2 1.8 1.1
v -2 1.8 -1.1
v -2 3.2 1.1
v -2 3.2 -1.1
v -1.9 1.5 1.1
v -1.9 1.5 -1.1
v -1.9 1.6 1.1
v -1.9 1.6 -1.1
v -1.9 3.2 1.1
v -1.9 3.2 -1.1
v -1.9 3.3 1.1
v -1.9 3.3 -1.1
v -1.8 1.4 1.1
v -1.8 1.4 -1.1
v -1.8 1.5 1.1
v -1.8 1.5 -1.1
v -1.8 3.3 1.1
v -1.8 3.3 -1.1
v -1.8 3.4 1.1
v -1.8 3.4 -1.1
v -1.7 1.3 1.1
v -1.7 1.3 -1.1
v -1.7 1.4 1.1
v -1.7 1.4 -1.1
v -1.7 3.4 1.1
v -1.7 3.4 -1.1
v -1.7 3.5 1.1
v -1.7 3.5 -1.1
v -1.6 1.2 1.1
v -1.6 1.2 -1.1
v -1.6 1.3 1.1
v -1.6 1.3 -1.1
v -1.6 3.5 1.1
v -1.6 3.5 -1.1
v -1.6 3.6 1.1
v -1.6 3.6 -1.1
v -1.5 1.1 1.1
v -1.5 1.1 -1.1
v -1.5 1.2 1.1
v -1.5 1.2 -1.1
v -1.5 3.6 1.1
v -1.5 3.6 -1.1
v -1.5 3.7 1.1
v -1.5 3.7 -1.1
v -1.4 1 1.1
v -1.4 1 -1.1
v -1.4 1.1 1.1
v -1.4 1.1 -1.1
v -1.4 3.7 1.1
v -1.4 3.7 -1.1
v -1.4 3.8 1.1
v -1.4 3.8 -1.1
v -1.3 0.9 1.1
v -1.3 0.9 -1.1
v -1.3 1 1.1
v -1.3 1 -1.1
v -1.3 3.8 1.1
v -1.3 3.8 -1.1
v -1.3 3.9 1.1
v -1.3 3.9 -1.1
v -1.2 0 1.1
v -1.2 0 -1.1
v -1.2 0.9 1.1
v -1.2 0.9 -1.1
v -1.2 3.9 1.1
v -1.2 3.9 -1.1
v -1.2 4 1.1
v -1.2 4 -1.1
v 1.2 0 1.1
v 1.2 0 -1.1
v 1.2 0.9 1.1
v 1.2 0.9 -1.1
v 1.2 3.9 1.1
v 1.2 3.9 -1.1
v 1.2 4 1.1
v 1.2 4 -1.1
v 1.3 0.9 1.1
v 1.3 0.9 -1.1
v 1.3 1 1.1
v 1.3 1 -1.1
v 1.3 3.8 1.1
v 1.3 3.8 -1.1
v 1.3 3.9 1.1
v 1.3 3.9 -1.1
v 1.4 1 1.1
v 1.4 1 -1.1
v 1.4 1.1 1.1
v 1.4 1.1 -1.1
v 1.4 3.7 1.1
v 1.4 3.7 -1.1
v 1.4 3.8 1.1
v 1.4 3.8 -1.1
v 1.5 1.1 1.1
v 1.5 1.1 -1.1
v 1.5 1.2 1.1
v 1.5 1.2 -1.1
v 1.5 3.6 1.1
v 1.5 3.6 -1.1
v 1.5 3.7 1.1
v 1.5 3.7 -1.1
v 1.6 1.2 1.1
v 1.6 1.2 -1.1
v 1.6 1.3 1.1
v 1.6 1.3 -1.1
v 1.6 3.5 1.1
v 1.6 3.5 -1.1
v 1.6 3.6 1.1
v 1.6 3.6 -1.1
v 1.7 1.3 1.1
v 1.7 1.3 -1.1
v 1.7 1.4 1.1
v 1.7 1.4 -1.1
v 1.7 3.4 1.1
v 1.7 3.4 -1.1
v 1.7 3.5 1.1
v 1.7 3.5 -1.1
v 1.8 1.4 1.1
v 1.8 1.4 -1.1
v 1.8 1.5 1.1
v 1.8 1.5 -1.1
v 1.8 3.3 1.1
v 1.8 3.3 -1.1
v 1.8 3.4 1.1
v 1.8 3.4 -1.1
v 1.9 1.5 1.1
v 1.9 1.5 -1.1
v 1.9 1.6 1.1
v 1.9 1.6 -1.1
v 1.9 3.2 1.1
v 1.9 3.2 -1.1
v 1.9 3.3 1.1
v 1.9 3.3 -1.1
v 2 1.6 1.1
v 2 1.6 -1.1
v 2 1.8 1.1
v 2 1.8 -1.1
v 2 3.2 1.1
v 2 3.2 -1.1
v -2 1.6 1.1
v -2 1.8 1.1
v -2 3.2 1.1
v -1.9 1.5 1.1
v -1.9 1.6 1.1
v -1.9 3.2 1.1
v -1.9 3.3 1.1
v -1.8 1.4 1.1
v -1.8 1.5 1.1
v -1.8 3.3 1.1
v -1.8 3.4 1.1
v -1.7 1.3 1.1
v -1.7 1.4 1.1
v -1.7 3.4 1.1
v -1.7 3.5 1.1
v -1.6 1.2 1.1
v -1.6 1.3 1.1
v -1.6 3.5 1.1
v -1.6 3.6 1.1
v -1.5 1.1 1.1
v -1.5 1.2 1.1
v -1.5 3.6 1.1
v -1.5 3.7 1.1
v -1.4 1 1.1
v -1.4 1.1 1.1
v -1.4 3.7 1.1
v -1.4 3.8 1.1
v -1.3 0.9 1.1
v -1.3 1 1.1
v -1.3 3.8 1.1
v -1.3 3.9 1.1
v -1.2 0 1.1
v -1.2 0.9 1.1
v -1.2 1.8 1.1
v -1.2 3.9 1.1
v -1.2 4 1.1
v -0.9 2.9 1.1
v -0.9 4 1.1
v 0.9 2.9 1.1
v 0.9 4 1.1
v 1.2 0 1.1
v 1.2 0.9 1.1
v 1.2 1.8 1.1
v 1.2 3.9 1.1
v 1.2 4 1.1
v 1.3 0.9 1.1
v 1.3 1 1.1
v 1.3 3.8 1.1
v 1.3 3.9 1.1
v 1.4 1 1.1
v 1.4 1.1 1.1
v 1.4 3.7 1.1
v 1.4 3.8 1.1
v 1.5 1.1 1.1
v 1.5 1.2 1.1
v 1.5 3.6 1.1
v 1.5 3.7 1.1
v 1.6 1.2 1.1
v 1.6 1.3 1.1
v 1.6 3.5 1.1
v 1.6 3.6 1.1
v 1.7 1.3 1.1
v 1.7 1.4 1.1
v 1.7 3.4 1.1
v 1.7 3.5 1.1
v 1.8 1.4 1.1
v 1.8 1.5 1.1
v 1.8 3.3 1.1
v 1.8 3.4 1.1
v 1.9 1.5 1.1
v 1.9 1.6 1.1
v 1.9 3.2 1.1
v 1.9 3.3 1.1
v 2 1.6 1.1
v 2 1.8 1.1
v 2 3.2 1.1
v -2 1.6 -1.1
v -2 1.8 -1.1
v -2 3.2 -1.1
v -1.9 1.5 -1.1
v -1.9 1.6 -1.1
v -1.9 3.2 -1.1
v -1.9 3.3 -1.1
v -1.8 1.4 -1.1
v -1.8 1.5 -1.1
v -1.8 3.3 -1.1
v -1.8 3.4 -1.1
v -1.7 1.3 -1.1
v -1.7 1.4 -1.1
v -1.7 3.4 -1.1
v -1.7 3.5 -1.1
v -1.6 1.2 -1.1
v -1.6 1.3 -1.1
v -1.6 3.5 -1.1
v -1.6 3.6 -1.1
v -1.5 1.1 -1.1
v -1.5 1.2 -1.1
v -1.5 3.6 -1.1
v -1.5 3.7 -1.1
v -1.4 1 -1.1
v -1.4 1.1 -1.1
v -1.4 3.7 -1.1
v -1.4 3.8 -1.1
v -1.3 0.9 -1.1
v -1.3 1 -1.1
v -1.3 3.8 -1.1
v -1.3 3.9 -1.1
v -1.2 0 -1.1
v -1.2 0.9 -1.1
v -1.2 1.8 -1.1
v -1.2 3.9 -1.1
v -1.2 4 -1.1
v -0.9 2.9 -1.1
v -0.9 4 -1.1
v 0.9 2.9 -1.1
v 0.9 4 -1.1
v 1.2 0 -1.1
v 1.2 0.9 -1.1
v 1.2 1.8 -1.1
v 1.2 3.9 -1.1
v 1.2 4 -1.1
v 1.3 0.9 -1.1
v 1.3 1 -1.1
v 1.3 3.8 -1.1
v 1.3 3.9 -1.1
v 1.4 1 -1.1
v 1.4 1.1 -1.1
v 1.4 3.7 -1.1
v 1.4 3.8 -1.1
v 1.5 1.1 -1.1
v 1.5 1.2 -1.1
v 1.5 3.6 -1.1
v 1.5 3.7 -1.1
v 1.6 1.2 -1.1
v 1.6 1.3 -1.1
v 1.6 3.5 -1.1
v 1.6 3.6 -1.1
v 1.7 1.3 -1.1
v 1.7 1.4 -1.1
v 1.7 3.4 -1.1
v 1.7 3.5 -1.1
v 1.8 1.4 -1.1
v 1.8 1.5 -1.1
v 1.8 3.3 -1.1
v 1.8 3.4 -1.1
v 1.9 1.5 -1.1
v 1.9 1.6 -1.1
v 1.9 3.2 -1.1
v 1.9 3.3 -1.1
v 2 1.6 -1.1
v 2 1.8 -1.1
v 2 3.2 -1.1
v -1.2 0 1.1
v 1.2 0 1.1
v -1.2 0 -1.1
v 1.2 0 -1.1
v -1.3 0.9 1.1
v -1.2 0.9 1.1
v 1.2 0.9 1.1
v 1.3 0.9 1.1
v -1.3 0.9 -1.1
v -1.2 0.9 -1.1
v 1.2 0.9 -1.1
v 1.3 0.9 -1.1
v -1.4 1 1.1
v -1.3 1 1.1
v 1.3 1 1.1
v 1.4 1 1.1
v -1.4 1 -1.1
v -1.3 1 -1.1
v 1.3 1 -1.1
v 1.4 1 -1.1
v -1.5 1.1 1.1
v -1.4 1.1 1.1
v 1.4 1.1 1.1
v 1.5 1.1 1.1
v -1.5 1.1 -1.1
v -1.4 1.1 -1.1
v 1.4 1.1 -1.1
v 1.5 1.1 -1.1
v -1.6 1.2 1.1
v -1.5 1.2 1.1
v 1.5 1.2 1.1
v 1.6 1.2 1.1
v -1.6 1.2 -1.1
v -1.5 1.2 -1.1
v 1.5 1.2 -1.1
v 1.6 1.2 -1.1
v -1.7 1.3 1.1
v -1.6 1.3 1.1
v 1.6 1.3 1.1
v 1.7 1.3 1.1
v -1.7 1.3 -1.1
v -1.6 1.3 -1.1
v 1.6 1.3 -1.1
v 1.7 1.3 -1.1
v -1.8 1.4 1.1
v -1.7 1.4 1.1
v 1.7 1.4 1.1
v 1.8 1.4 1.1
v -1.8 1.4 -1.1
v -1.7 1.4 -1.1
v 1.7 1.4 -1.1
v 1.8 1.4 -1.1
v -1.9 1.5 1.1
v -1.8 1.5 1.1
v 1.8 1.5 1.1
v 1.9 1.5 1.1
v -1.9 1.5 -1.1
v -1.8 1.5 -1.1
v 1.8 1.5 -1.1
v 1.9 1.5 -1.1
v -2 1.6 1.1
v -1.9 1.6 1.1
v 1.9 1.6 1.1
v 2 1.6 1.1
v -2 1.6 -1.1
v -1.9 1.6 -1.1
v 1.9 1.6 -1.1
v 2 1.6 -1.1
v -2 3.2 1.1
v -1.9 3.2 1.1
v 1.9 3.2 1.1
v 2 3.2 1.1
v -2 3.2 -1.1
v -1.9 3.2 -1.1
v 1.9 3.2 -1.1
v 2 3.2 -1.1
v -1.9 3.3 1.1
v -1.8 3.3 1.1
v 1.8 3.3 1.1
v 1.9 3.3 1.1
v -1.9 3.3 -1.1
v -1.8 3.3 -1.1
v 1.8 3.3 -1.1
v 1.9 3.3 -1.1
v -1.8 3.4 1.1
v -1.7 3.4 1.1
v 1.7 3.4 1.1
v 1.8 3.4 1.1
v -1.8 3.4 -1.1
v -1.7 3.4 -1.1
v 1.7 3.4 -1.1
v 1.8 3.4 -1.1
v -1.7 3.5 1.1
v -1.6 3.5 1.1
v 1.6 3.5 1.1
v 1.7 3.5 1.1
v -1.7 3.5 -1.1
v -1.6 3.5 -1.1
v 1.6 3.5 -1.1
v 1.7 3.5 -1.1
v -1.6 3.6 1.1
v -1.5 3.6 1.1
v 1.5 3.6 1.1
v 1.6 3.6 1.1
v -1.6 3.6 -1.1
v -1.5 3.6 -1.1
v 1.5 3.6 -1.1
v 1.6 3.6 -1.1
v -1.5 3.7 1.1
v -1.4 3.7 1.1
v 1.4 3.7 1.1
v 1.5 3.7 1.1
v -1.5 3.7 -1.1
v -1.4 3.7 -1.1
v 1.4 3.7 -1.1
v 1.5 3.7 -1.1
v -1.4 3.8 1.1
v -1.3 3.8 1.1
v 1.3 3.8 1.1
v 1.4 3.8 1.1
v -1.4 3.8 -1.1
v -1.3 3.8 -1.1
v 1.3 3.8 -1.1
v 1.4 3.8 -1.1
v -1.3 3.9 1.1
v -1.2 3.9 1.1
v 1.2 3.9 1.1
v 1.3 3.9 1.1
v -1.3 3.9 -1.1
v -1.2 3.9 -1.1
v 1.2 3.9 -1.1
v 1.3 3.9 -1.1
v -1.2 4 1.1
v -0.9 4 1.1
v 0.9 4 1.1
v 1.2 4 1.1
v -1.2 4 -1.1
v -0.9 4 -1.1
v 0.9 4 -1.1
v 1.2 4 -1.1

# faces
f 3/1/1 2/1/1 1/1/1
f 4/1/1 2/1/1 3/1/1
f 5/2/1 4/2/1 3/2/1
f 6/2/1 4/2/1 5/2/1
f 9/1/1 8/1/1 7/1/1
f 10/1/1 8/1/1 9/1/1
f 13/2/1 12/2/1 11/2/1
f 14/2/1 12/2/1 13/2/1
f 17/1/1 16/1/1 15/1/1
f 18/1/1 16/1/1 17/1/1
f 21/2/1 20/2/1 19/2/1
f 22/2/1 20/2/1 21/2/1
f 25/1/1 24/1/1 23/1/1
f 26/1/1 24/1/1 25/1/1
f 29/2/1 28/2/1 27/2/1
f 30/2/1 28/2/1 29/2/1
f 33/1/1 32/1/1 31/1/1
f 34/1/1 32/1/1 33/1/1
f 37/2/1 36/2/1 35/2/1
f 38/2/1 36/2/1 37/2/1
f 41/1/1 40/1/1 39/1/1
f 42/1/1 40/1/1 41/1/1
f 45/2/1 44/2/1 43/2/1
f 46/2/1 44/2/1 45/2/1
f 49/1/1 48/1/1 47/1/1
f 50/1/1 48/1/1 49/1/1
f 53/2/1 52/2/1 51/2/1
f 54/2/1 52/2/1 53/2/1
f 57/1/1 56/1/1 55/1/1
f 58/1/1 56/1/1 57/1/1
f 61/2/1 60/2/1 59/2/1
f 62/2/1 60/2/1 61/2/1
f 65/1/1 64/1/1 63/1/1
f 66/1/1 64/1/1 65/1/1
f 69/1/1 68/1/1 67/1/1
f 70/1/1 68/1/1 69/1/1
f 71/1/2 72/1/2 73/1/2
f 73/1/2 72/1/2 74/1/2
f 75/1/2 76/1/2 77/1/2
f 77/1/2 76/1/2 78/1/2
f 79/1/2 80/1/2 81/1/2
f 81/1/2 80/1/2 82/1/2
f 83/2/2 84/2/2 85/2/2
f 85/2/2 84/2/2 86/2/2
f 87/1/2 88/1/2 89/1/2
f 89/1/2 88/1/2 90/1/2
f 91/2/2 92/2/2 93/2/2
f 93/2/2 92/2/2 94/2/2
f 95/1/2 96/1/2 97/1/2
f 97/1/2 96/1/2 98/1/2
f 99/2/2 100/2/2 101/2/2
f 101/2/2 100/2/2 102/2/2
f 103/1/2 104/1/2 105/1/2
f 105/1/2 104/1/2 106/1/2
f 107/2/2 108/2/2 109/2/2
f 109/2/2 108/2/2 110/2/2
f 111/1/2 112/1/2 113/1/2
f 113/1/2 112/1/2 114/1/2
f 115/2/2 116/2/2 117/2/2
f 117/2/2 116/2/2 118/2/2
f 119/1/2 120/1/2 121/1/2
f 121/1/2 120/1/2 122/1/2
f 123/2/2 124/2/2 125/2/2
f 125/2/2 124/2/2 126/2/2
f 127/1/2 128/1/2 129/1/2
f 129/1/2 128/1/2 130/1/2
f 131/2/2 132/2/2 133/2/2
f 133/2/2 132/2/2 134/2/2
f 135/1/2 136/1/2 137/1/2
f 137/1/2 136/1/2 138/1/2
f 137/2/2 138/2/2 139/2/2
f 139/2/2 138/2/2 140/2/2
f 145/1/3 142/1/3 141/1/3
f 146/2/3 143/2/3 142/2/3
f 149/1/3 145/1/3 144/1/3
f 150/2/3 147/2/3 146/2/3
f 153/1/3 149/1/3 148/1/3
f 154/2/3 151/2/3 150/2/3
f 157/1/3 153/1/3 152/1/3
f 158/2/3 155/2/3 154/2/3
f 161/1/3 157/1/3 156/1/3
f 162/2/3 159/2/3 158/2/3
f 165/1/3 161/1/3 160/1/3
f 166/2/3 163/2/3 162/2/3
f 169/1/3 165/1/3 164/1/3
f 170/2/3 167/2/3 166/2/3
f 173/1/3 169/1/3 168/1/3
f 174/2/3 171/2/3 170/2/3
f 174/1/3 142/1/3 145/1/3
f 174/1/3 169/1/3 173/1/3
f 174/2/3 146/2/3 142/2/3
f 174/2/3 170/2/3 166/2/3
f 174/1/3 165/1/3 169/1/3
f 174/1/3 145/1/3 149/1/3
f 174/2/3 166/2/3 162/2/3
f 174/1/3 161/1/3 165/1/3
f 174/2/3 150/2/3 146/2/3
f 174/2/3 162/2/3 158/2/3
f 174/1/3 157/1/3 161/1/3
f 174/1/3 149/1/3 153/1/3
f 174/2/3 158/2/3 154/2/3
f 174/1/3 153/1/3 157/1/3
f 174/2/3 154/2/3 150/2/3
f 175/2/3 171/2/3 174/2/3
f 177/1/3 173/1/3 172/1/3
f 177/1/3 176/1/3 175/1/3
f 177/1/3 175/1/3 174/1/3
f 177/1/3 174/1/3 173/1/3
f 178/1/3 176/1/3 177/1/3
f 179/1/3 177/1/3 172/1/3
f 179/2/3 178/2/3 177/2/3
f 180/2/3 178/2/3 179/2/3
f 181/1/3 179/1/3 172/1/3
f 181/1/3 180/1/3 179/1/3
f 182/1/3 180/1/3 181/1/3
f 183/1/3 180/1/3 182/1/3
f 184/1/3 180/1/3 183/1/3
f 185/1/3 180/1/3 184/1/3
f 186/1/3 183/1/3 182/1/3
f 187/1/3 183/1/3 186/1/3
f 188/2/3 184/2/3 183/2/3
f 189/2/3 184/2/3 188/2/3
f 190/1/3 183/1/3 187/1/3
f 191/1/3 183/1/3 190/1/3
f 192/2/3 188/2/3 183/2/3
f 193/2/3 188/2/3 192/2/3
f 194/1/3 183/1/3 191/1/3
f 195/1/3 183/1/3 194/1/3
f 196/2/3 192/2/3 183/2/3
f 197/2/3 192/2/3 196/2/3
f 198/1/3 183/1/3 195/1/3
f 199/1/3 183/1/3 198/1/3
f 200/2/3 196/2/3 183/2/3
f 201/2/3 196/2/3 200/2/3
f 202/1/3 183/1/3 199/1/3
f 203/1/3 183/1/3 202/1/3
f 204/2/3 200/2/3 183/2/3
f 205/2/3 200/2/3 204/2/3
f 206/1/3 183/1/3 203/1/3
f 207/1/3 183/1/3 206/1/3
f 208/2/3 204/2/3 183/2/3
f 209/2/3 204/2/3 208/2/3
f 210/1/3 183/1/3 207/1/3
f 211/1/3 183/1/3 210/1/3
f 212/2/3 208/2/3 183/2/3
f 213/2/3 208/2/3 212/2/3
f 214/1/3 183/1/3 211/1/3
f 215/2/3 212/2/3 183/2/3
f 215/1/3 183/1/3 214/1/3
f 216/2/3 212/2/3 215/2/3
f 217/1/4 218/1/4 221/1/4
f 218/2/4 219/2/4 222/2/4
f 220/1/4 221/1/4 225/1/4
f 222/2/4 223/2/4 226/2/4
f 224/1/4 225/1/4 229/1/4
f 226/2/4 227/2/4 230/2/4
f 228/1/4 229/1/4 233/1/4
f 230/2/4 231/2/4 234/2/4
f 232/1/4 233/1/4 237/1/4
f 234/2/4 235/2/4 238/2/4
f 236/1/4 237/1/4 241/1/4
f 238/2/4 239/2/4 242/2/4
f 240/1/4 241/1/4 245/1/4
f 242/2/4 243/2/4 246/2/4
f 244/1/4 245/1/4 249/1/4
f 246/2/4 247/2/4 250/2/4
f 221/1/4 218/1/4 250/1/4
f 249/1/4 245/1/4 250/1/4
f 218/2/4 222/2/4 250/2/4
f 242/2/4 246/2/4 250/2/4
f 245/1/4 241/1/4 250/1/4
f 225/1/4 221/1/4 250/1/4
f 238/2/4 242/2/4 250/2/4
f 241/1/4 237/1/4 250/1/4
f 222/2/4 226/2/4 250/2/4
f 234/2/4 238/2/4 250/2/4
f 237/1/4 233/1/4 250/1/4
f 229/1/4 225/1/4 250/1/4
f 230/2/4 234/2/4 250/2/4
f 233/1/4 229/1/4 250/1/4
f 226/2/4 230/2/4 250/2/4
f 250/2/4 247/2/4 251/2/4
f 248/1/4 249/1/4 253/1/4
f 251/1/4 252/1/4 253/1/4
f 250/1/4 251/1/4 253/1/4
f 249/1/4 250/1/4 253/1/4
f 253/1/4 252/1/4 254/1/4
f 248/1/4 253/1/4 255/1/4
f 253/2/4 254/2/4 255/2/4
f 255/2/4 254/2/4 256/2/4
f 248/1/4 255/1/4 257/1/4
f 255/1/4 256/1/4 257/1/4
f 257/1/4 256/1/4 258/1/4
f 258/1/4 256/1/4 259/1/4
f 259/1/4 256/1/4 260/1/4
f 260/1/4 256/1/4 261/1/4
f 258/1/4 259/1/4 262/1/4
f 262/1/4 259/1/4 263/1/4
f 259/2/4 260/2/4 264/2/4
f 264/2/4 260/2/4 265/2/4
f 263/1/4 259/1/4 266/1/4
f 266/1/4 259/1/4 267/1/4
f 259/2/4 264/2/4 268/2/4
f 268/2/4 264/2/4 269/2/4
f 267/1/4 259/1/4 270/1/4
f 270/1/4 259/1/4 271/1/4
f 259/2/4 268/2/4 272/2/4
f 272/2/4 268/2/4 273/2/4
f 271/1/4 259/1/4 274/1/4
f 274/1/4 259/1/4 275/1/4
f 259/2/4 272/2/4 276/2/4
f 276/2/4 272/2/4 277/2/4
f 275/1/4 259/1/4 278/1/4
f 278/1/4 259/1/4 279/1/4
f 259/2/4 276/2/4 280/2/4
f 280/2/4 276/2/4 281/2/4
f 279/1/4 259/1/4 282/1/4
f 282/1/4 259/1/4 283/1/4
f 259/2/4 280/2/4 284/2/4
f 284/2/4 280/2/4 285/2/4
f 283/1/4 259/1/4 286/1/4
f 286/1/4 259/1/4 287/1/4
f 259/2/4 284/2/4 288/2/4
f 288/2/4 284/2/4 289/2/4
f 287/1/4 259/1/4 290/1/4
f 259/2/4 288/2/4 291/2/4
f 290/1/4 259/1/4 291/1/4
f 291/2/4 288/2/4 292/2/4
f 295/1/5 294/1/5 293/1/5
f 296/1/5 294/1/5 295/1/5
f 301/1/5 298/1/5 297/1/5
f 302/1/5 298/1/5 301/1/5
f 303/1/5 300/1/5 299/1/5
f 304/1/5 300/1/5 303/1/5
f 309/1/5 306/1/5 305/1/5
f 310/1/5 306/1/5 309/1/5
f 311/1/5 308/1/5 307/1/5
f 312/1/5 308/1/5 311/1/5
f 317/1/5 314/1/5 313/1/5
f 318/1/5 314/1/5 317/1/5
f 319/1/5 316/1/5 315/1/5
f 320/1/5 316/1/5 319/1/5
f 325/1/5 322/1/5 321/1/5
f 326/1/5 322/1/5 325/1/5
f 327/1/5 324/1/5 323/1/5
f 328/1/5 324/1/5 327/1/5
f 333/1/5 330/1/5 329/1/5
f 334/1/5 330/1/5 333/1/5
f 335/1/5 332/1/5 331/1/5
f 336/1/5 332/1/5 335/1/5
f 341/1/5 338/1/5 337/1/5
f 342/1/5 338/1/5 341/1/5
f 343/1/5 340/1/5 339/1/5
f 344/1/5 340/1/5 343/1/5
f 349/1/5 346/1/5 345/1/5
f 350/1/5 346/1/5 349/1/5
f 351/1/5 348/1/5 347/1/5
f 352/1/5 348/1/5 351/1/5
f 357/1/5 354/1/5 353/1/5
f 358/1/5 354/1/5 357/1/5
f 359/1/5 356/1/5 355/1/5
f 360/1/5 356/1/5 359/1/5
f 361/2/6 362/2/6 365/2/6
f 365/2/6 362/2/6 366/2/6
f 363/2/6 364/2/6 367/2/6
f 367/2/6 364/2/6 368/2/6
f 369/2/6 370/2/6 373/2/6
f 373/2/6 370/2/6 374/2/6
f 371/2/6 372/2/6 375/2/6
f 375/2/6 372/2/6 376/2/6
f 377/2/6 378/2/6 381/2/6
f 381/2/6 378/2/6 382/2/6
f 379/2/6 380/2/6 383/2/6
f 383/2/6 380/2/6 384/2/6
f 385/2/6 386/2/6 389/2/6
f 389/2/6 386/2/6 390/2/6
f 387/2/6 388/2/6 391/2/6
f 391/2/6 388/2/6 392/2/6
f 393/2/6 394/2/6 397/2/6
f 397/2/6 394/2/6 398/2/6
f 395/2/6 396/2/6 399/2/6
f 399/2/6 396/2/6 400/2/6
f 401/2/6 402/2/6 405/2/6
f 405/2/6 402/2/6 406/2/6
f 403/2/6 404/2/6 407/2/6
f 407/2/6 404/2/6 408/2/6
f 409/2/6 410/2/6 413/2/6
f 413/2/6 410/2/6 414/2/6
f 411/2/6 412/2/6 415/2/6
f 415/2/6 412/2/6 416/2/6
f 417/2/6 418/2/6 421/2/6
f 421/2/6 418/2/6 422/2/6
f 419/2/6 420/2/6 423/2/6
f 423/2/6 420/2/6 424/2/6
f 425/1/6 426/1/6 429/1/6
f 426/2/6 427/2/6 430/2/6
f 429/1/6 426/1/6 430/1/6
f 427/1/6 428/1/6 431/1/6
f 430/2/6 427/2/6 431/2/6
f 431/1/6 428/1/6 432/1/6
