# MagicaVoxel @ Ephtracy

# group
o 

# material
mtllib PlayerFull-0.mtl
usemtl palette

# normals
vn -1 0 0
vn 1 0 0
vn 0 0 1
vn 0 0 -1
vn 0 -1 0
vn 0 1 0

# texcoords
vt 0.720703 0.5
vt 0.845703 0.5
vt 0.876953 0.5

# verts
v -1.3 0 1.1
v -1.3 0 0.8
v -1.3 0 0.6
v -1.3 0 0.3
v -1.3 0 0.1
v -1.3 0 -0.2
v -1.3 0 -0.4
v -1.3 0 -0.7
v -1.3 0 -0.9
v -1.3 0 -1.1
v -1.3 0.5 1.1
v -1.3 0.5 0.8
v -1.3 0.5 0.6
v -1.3 0.5 0.3
v -1.3 0.5 0.1
v -1.3 0.5 -0.2
v -1.3 0.5 -0.4
v -1.3 0.5 -0.7
v -1.3 0.5 -0.9
v -1.3 0.5 -1.1
v -1.3 0.6 1.1
v -1.3 0.6 0.8
v -1.3 0.6 0.6
v -1.3 0.6 0.3
v -1.3 0.6 0.1
v -1.3 0.6 -0.2
v -1.3 0.6 -0.4
v -1.3 0.6 -0.7
v -1.3 0.6 -0.9
v -1.3 0.6 -1.1
v 0.0999999 0 0.8
v 0.0999999 0 0.6
v 0.0999999 0 0.3
v 0.0999999 0 0.1
v 0.0999999 0 -0.2
v 0.0999999 0 -0.4
v 0.0999999 0 -0.7
v 0.0999999 0 -0.9
v 0.0999999 0.6 0.8
v 0.0999999 0.6 0.6
v 0.0999999 0.6 0.3
v 0.0999999 0.6 0.1
v 0.0999999 0.6 -0.2
v 0.0999999 0.6 -0.4
v 0.0999999 0.6 -0.7
v 0.0999999 0.6 -0.9
v 1.3 0 1.1
v 1.3 0 -1.1
v 1.3 0.6 1.1
v 1.3 0.6 -1.1
v -1.3 0 1.1
v -1.3 0.5 1.1
v -1.3 0.6 1.1
v -1 0.5 1.1
v -1 0.6 1.1
v 0.6 0 1.1
v 0.6 0.2 1.1
v 0.6 0.3 1.1
v 0.6 0.5 1.1
v 0.8 0.2 1.1
v 0.8 0.3 1.1
v 0.8 0.5 1.1
v 0.8 0.6 1.1
v 1 0.2 1.1
v 1 0.3 1.1
v 1 0.5 1.1
v 1 0.6 1.1
v 1.1 0 1.1
v 1.1 0.2 1.1
v 1.1 0.3 1.1
v 1.1 0.5 1.1
v 1.3 0 1.1
v 1.3 0.6 1.1
v -1.3 0 0.6
v -1.3 0.5 0.6
v -1.3 0.6 0.6
v -1 0.5 0.6
v -1 0.6 0.6
v 0.0999999 0 0.6
v 0.0999999 0.6 0.6
v -1.3 0 0.1
v -1.3 0.5 0.1
v -1.3 0.6 0.1
v -1 0.5 0.1
v -1 0.6 0.1
v 0.0999999 0 0.1
v 0.0999999 0.6 0.1
v -1.3 0 -0.4
v -1.3 0.5 -0.4
v -1.3 0.6 -0.4
v -1 0.5 -0.4
v -1 0.6 -0.4
v 0.0999999 0 -0.4
v 0.0999999 0.6 -0.4
v -1.3 0 -0.9
v -1.3 0.5 -0.9
v -1.3 0.6 -0.9
v -1 0.5 -0.9
v -1 0.6 -0.9
v 0.0999999 0 -0.9
v 0.0999999 0.6 -0.9
v -1.3 0 0.8
v -1.3 0.5 0.8
v -1.3 0.6 0.8
v -1 0.5 0.8
v -1 0.6 0.8
v 0.0999999 0 0.8
v 0.0999999 0.6 0.8
v -1.3 0 0.3
v -1.3 0.5 0.3
v -1.3 0.6 0.3
v -1 0.5 0.3
v -1 0.6 0.3
v 0.0999999 0 0.3
v 0.0999999 0.6 0.3
v -1.3 0 -0.2
v -1.3 0.5 -0.2
v -1.3 0.6 -0.2
v -1 0.5 -0.2
v -1 0.6 -0.2
v 0.0999999 0 -0.2
v 0.0999999 0.6 -0.2
v -1.3 0 -0.7
v -1.3 0.5 -0.7
v -1.3 0.6 -0.7
v -1 0.5 -0.7
v -1 0.6 -0.7
v 0.0999999 0 -0.7
v 0.0999999 0.6 -0.7
v -1.3 0 -1.1
v -1.3 0.5 -1.1
v -1.3 0.6 -1.1
v -1 0.5 -1.1
v -1 0.6 -1.1
v 0.6 0 -1.1
v 0.6 0.2 -1.1
v 0.6 0.3 -1.1
v 0.6 0.5 -1.1
v 0.8 0.2 -1.1
v 0.8 0.3 -1.1
v 0.8 0.5 -1.1
v 0.8 0.6 -1.1
v 1 0.2 -1.1
v 1 0.3 -1.1
v 1 0.5 -1.1
v 1 0.6 -1.1
v 1.1 0 -1.1
v 1.1 0.2 -1.1
v 1.1 0.3 -1.1
v 1.1 0.5 -1.1
v 1.3 0 -1.1
v 1.3 0.6 -1.1
v -1.3 0 1.1
v 0.6 0 1.1
v 1.1 0 1.1
v 1.3 0 1.1
v 0.6 0 1
v 0.8 0 1
v 1 0 1
v 1.1 0 1
v -1.3 0 0.8
v 0.0999999 0 0.8
v 0.6 0 0.8
v 0.8 0 0.8
v 1 0 0.8
v 1.1 0 0.8
v -1.3 0 0.6
v 0.0999999 0 0.6
v 0.6 0 0.6
v 0.8 0 0.6
v 1 0 0.6
v 1.1 0 0.6
v 0.6 0 0.4
v 0.8 0 0.4
v 1 0 0.4
v 1.1 0 0.4
v -1.3 0 0.3
v 0.0999999 0 0.3
v 0.6 0 0.2
v 0.8 0 0.2
v 1 0 0.2
v 1.1 0 0.2
v -1.3 0 0.1
v 0.0999999 0 0.1
v 0.6 0 0
v 0.8 0 0
v 1 0 0
v 1.1 0 0
v -1.3 0 -0.2
v 0.0999999 0 -0.2
v 0.6 0 -0.2
v 0.8 0 -0.2
v 1 0 -0.2
v 1.1 0 -0.2
v -1.3 0 -0.4
v 0.0999999 0 -0.4
v 0.6 0 -0.4
v 0.8 0 -0.4
v 1 0 -0.4
v 1.1 0 -0.4
v 0.6 0 -0.6
v 0.8 0 -0.6
v 1 0 -0.6
v 1.1 0 -0.6
v -1.3 0 -0.7
v 0.0999999 0 -0.7
v 0.6 0 -0.7
v 0.8 0 -0.7
v 1 0 -0.7
v 1.1 0 -0.7
v -1.3 0 -0.9
v 0.0999999 0 -0.9
v 0.6 0 -0.9
v 0.8 0 -0.9
v 1 0 -0.9
v 1.1 0 -0.9
v 0.6 0 -1
v 0.8 0 -1
v 1 0 -1
v 1.1 0 -1
v -1.3 0 -1.1
v 0.6 0 -1.1
v 1.1 0 -1.1
v 1.3 0 -1.1
v -1.3 0.6 1.1
v -1 0.6 1.1
v 0.8 0.6 1.1
v 1 0.6 1.1
v 1.3 0.6 1.1
v 0.6 0.6 0.9
v 0.8 0.6 0.9
v 1 0.6 0.9
v 1.1 0.6 0.9
v -1.3 0.6 0.8
v -1 0.6 0.8
v 0.0999999 0.6 0.8
v 0.6 0.6 0.7
v 0.8 0.6 0.7
v 1 0.6 0.7
v 1.1 0.6 0.7
v -1.3 0.6 0.6
v -1 0.6 0.6
v 0.0999999 0.6 0.6
v 0.6 0.6 0.5
v 0.8 0.6 0.5
v 1 0.6 0.5
v 1.1 0.6 0.5
v -1.3 0.6 0.3
v -1 0.6 0.3
v 0.0999999 0.6 0.3
v 0.6 0.6 0.3
v 0.8 0.6 0.3
v 1 0.6 0.3
v 1.1 0.6 0.3
v -1.3 0.6 0.1
v -1 0.6 0.1
v 0.0999999 0.6 0.1
v 0.6 0.6 0.1
v 0.8 0.6 0.1
v 1 0.6 0.1
v 1.1 0.6 0.1
v 0.6 0.6 -0.1
v 0.8 0.6 -0.1
v 1 0.6 -0.1
v 1.1 0.6 -0.1
v -1.3 0.6 -0.2
v -1 0.6 -0.2
v 0.0999999 0.6 -0.2
v 0.6 0.6 -0.3
v 0.8 0.6 -0.3
v 1 0.6 -0.3
v 1.1 0.6 -0.3
v -1.3 0.6 -0.4
v -1 0.6 -0.4
v 0.0999999 0.6 -0.4
v 0.6 0.6 -0.5
v 0.8 0.6 -0.5
v 1 0.6 -0.5
v 1.1 0.6 -0.5
v -1.3 0.6 -0.7
v -1 0.6 -0.7
v 0.0999999 0.6 -0.7
v 0.6 0.6 -0.7
v 0.8 0.6 -0.7
v 1 0.6 -0.7
v 1.1 0.6 -0.7
v -1.3 0.6 -0.9
v -1 0.6 -0.9
v 0.0999999 0.6 -0.9
v 0.6 0.6 -0.9
v 0.8 0.6 -0.9
v 1 0.6 -0.9
v 1.1 0.6 -0.9
v -1.3 0.6 -1.1
v -1 0.6 -1.1
v 0.8 0.6 -1.1
v 1 0.6 -1.1
v 1.3 0.6 -1.1

# faces
f 11/1/1 2/1/1 1/1/1
f 12/1/1 2/1/1 11/1/1
f 13/1/1 4/1/1 3/1/1
f 14/1/1 4/1/1 13/1/1
f 15/1/1 6/1/1 5/1/1
f 16/1/1 6/1/1 15/1/1
f 17/1/1 8/1/1 7/1/1
f 18/1/1 8/1/1 17/1/1
f 19/1/1 10/1/1 9/1/1
f 20/1/1 10/1/1 19/1/1
f 21/2/1 12/2/1 11/2/1
f 22/2/1 12/2/1 21/2/1
f 23/2/1 14/2/1 13/2/1
f 24/2/1 14/2/1 23/2/1
f 25/2/1 16/2/1 15/2/1
f 26/2/1 16/2/1 25/2/1
f 27/2/1 18/2/1 17/2/1
f 28/2/1 18/2/1 27/2/1
f 29/2/1 20/2/1 19/2/1
f 30/2/1 20/2/1 29/2/1
f 39/1/1 32/1/1 31/1/1
f 40/1/1 32/1/1 39/1/1
f 41/1/1 34/1/1 33/1/1
f 42/1/1 34/1/1 41/1/1
f 43/1/1 36/1/1 35/1/1
f 44/1/1 36/1/1 43/1/1
f 45/1/1 38/1/1 37/1/1
f 46/1/1 38/1/1 45/1/1
f 47/1/2 48/1/2 49/1/2
f 49/1/2 48/1/2 50/1/2
f 54/1/3 52/1/3 51/1/3
f 54/2/3 53/2/3 52/2/3
f 55/2/3 53/2/3 54/2/3
f 56/1/3 54/1/3 51/1/3
f 56/1/3 55/1/3 54/1/3
f 57/1/3 55/1/3 56/1/3
f 58/1/3 55/1/3 57/1/3
f 59/1/3 55/1/3 58/1/3
f 60/3/3 57/3/3 56/3/3
f 60/1/3 58/1/3 57/1/3
f 61/3/3 59/3/3 58/3/3
f 61/1/3 58/1/3 60/1/3
f 62/1/3 55/1/3 59/1/3
f 62/3/3 59/3/3 61/3/3
f 63/1/3 55/1/3 62/1/3
f 64/3/3 61/3/3 60/3/3
f 64/3/3 60/3/3 56/3/3
f 64/3/3 63/3/3 62/3/3
f 64/3/3 62/3/3 61/3/3
f 65/3/3 63/3/3 64/3/3
f 66/3/3 63/3/3 65/3/3
f 67/3/3 63/3/3 66/3/3
f 68/3/3 64/3/3 56/3/3
f 69/1/3 65/1/3 64/1/3
f 69/3/3 64/3/3 68/3/3
f 70/3/3 66/3/3 65/3/3
f 70/1/3 65/1/3 69/1/3
f 71/1/3 67/1/3 66/1/3
f 71/3/3 66/3/3 70/3/3
f 72/1/3 69/1/3 68/1/3
f 72/1/3 70/1/3 69/1/3
f 72/1/3 71/1/3 70/1/3
f 73/1/3 67/1/3 71/1/3
f 73/1/3 71/1/3 72/1/3
f 77/1/3 75/1/3 74/1/3
f 77/2/3 76/2/3 75/2/3
f 78/2/3 76/2/3 77/2/3
f 79/1/3 77/1/3 74/1/3
f 79/1/3 78/1/3 77/1/3
f 80/1/3 78/1/3 79/1/3
f 84/1/3 82/1/3 81/1/3
f 84/2/3 83/2/3 82/2/3
f 85/2/3 83/2/3 84/2/3
f 86/1/3 84/1/3 81/1/3
f 86/1/3 85/1/3 84/1/3
f 87/1/3 85/1/3 86/1/3
f 91/1/3 89/1/3 88/1/3
f 91/2/3 90/2/3 89/2/3
f 92/2/3 90/2/3 91/2/3
f 93/1/3 91/1/3 88/1/3
f 93/1/3 92/1/3 91/1/3
f 94/1/3 92/1/3 93/1/3
f 98/1/3 96/1/3 95/1/3
f 98/2/3 97/2/3 96/2/3
f 99/2/3 97/2/3 98/2/3
f 100/1/3 98/1/3 95/1/3
f 100/1/3 99/1/3 98/1/3
f 101/1/3 99/1/3 100/1/3
f 102/1/4 103/1/4 105/1/4
f 103/2/4 104/2/4 105/2/4
f 105/2/4 104/2/4 106/2/4
f 102/1/4 105/1/4 107/1/4
f 105/1/4 106/1/4 107/1/4
f 107/1/4 106/1/4 108/1/4
f 109/1/4 110/1/4 112/1/4
f 110/2/4 111/2/4 112/2/4
f 112/2/4 111/2/4 113/2/4
f 109/1/4 112/1/4 114/1/4
f 112/1/4 113/1/4 114/1/4
f 114/1/4 113/1/4 115/1/4
f 116/1/4 117/1/4 119/1/4
f 117/2/4 118/2/4 119/2/4
f 119/2/4 118/2/4 120/2/4
f 116/1/4 119/1/4 121/1/4
f 119/1/4 120/1/4 121/1/4
f 121/1/4 120/1/4 122/1/4
f 123/1/4 124/1/4 126/1/4
f 124/2/4 125/2/4 126/2/4
f 126/2/4 125/2/4 127/2/4
f 123/1/4 126/1/4 128/1/4
f 126/1/4 127/1/4 128/1/4
f 128/1/4 127/1/4 129/1/4
f 130/1/4 131/1/4 133/1/4
f 131/2/4 132/2/4 133/2/4
f 133/2/4 132/2/4 134/2/4
f 130/1/4 133/1/4 135/1/4
f 133/1/4 134/1/4 135/1/4
f 135/1/4 134/1/4 136/1/4
f 136/1/4 134/1/4 137/1/4
f 137/1/4 134/1/4 138/1/4
f 135/3/4 136/3/4 139/3/4
f 136/1/4 137/1/4 139/1/4
f 137/3/4 138/3/4 140/3/4
f 139/1/4 137/1/4 140/1/4
f 138/1/4 134/1/4 141/1/4
f 140/3/4 138/3/4 141/3/4
f 141/1/4 134/1/4 142/1/4
f 139/3/4 140/3/4 143/3/4
f 135/3/4 139/3/4 143/3/4
f 141/3/4 142/3/4 143/3/4
f 140/3/4 141/3/4 143/3/4
f 143/3/4 142/3/4 144/3/4
f 144/3/4 142/3/4 145/3/4
f 145/3/4 142/3/4 146/3/4
f 135/3/4 143/3/4 147/3/4
f 143/1/4 144/1/4 148/1/4
f 147/3/4 143/3/4 148/3/4
f 144/3/4 145/3/4 149/3/4
f 148/1/4 144/1/4 149/1/4
f 145/1/4 146/1/4 150/1/4
f 149/3/4 145/3/4 150/3/4
f 147/1/4 148/1/4 151/1/4
f 148/1/4 149/1/4 151/1/4
f 149/1/4 150/1/4 151/1/4
f 150/1/4 146/1/4 152/1/4
f 151/1/4 150/1/4 152/1/4
f 157/1/5 154/1/5 153/1/5
f 157/3/5 155/3/5 154/3/5
f 158/3/5 155/3/5 157/3/5
f 159/3/5 155/3/5 158/3/5
f 160/1/5 156/1/5 155/1/5
f 160/3/5 155/3/5 159/3/5
f 161/1/5 157/1/5 153/1/5
f 161/1/5 158/1/5 157/1/5
f 162/1/5 158/1/5 161/1/5
f 163/1/5 158/1/5 162/1/5
f 164/3/5 159/3/5 158/3/5
f 164/1/5 158/1/5 163/1/5
f 165/1/5 160/1/5 159/1/5
f 165/3/5 159/3/5 164/3/5
f 166/1/5 156/1/5 160/1/5
f 166/1/5 160/1/5 165/1/5
f 168/1/5 163/1/5 162/1/5
f 169/3/5 166/3/5 165/3/5
f 169/3/5 165/3/5 164/3/5
f 169/1/5 163/1/5 168/1/5
f 169/3/5 164/3/5 163/3/5
f 170/3/5 166/3/5 169/3/5
f 171/3/5 166/3/5 170/3/5
f 172/1/5 156/1/5 166/1/5
f 172/3/5 166/3/5 171/3/5
f 173/1/5 168/1/5 167/1/5
f 173/1/5 169/1/5 168/1/5
f 173/1/5 170/1/5 169/1/5
f 174/3/5 171/3/5 170/3/5
f 174/1/5 170/1/5 173/1/5
f 175/1/5 172/1/5 171/1/5
f 175/3/5 171/3/5 174/3/5
f 176/1/5 156/1/5 172/1/5
f 176/1/5 172/1/5 175/1/5
f 177/1/5 173/1/5 167/1/5
f 178/1/5 173/1/5 177/1/5
f 179/3/5 175/3/5 174/3/5
f 179/1/5 173/1/5 178/1/5
f 179/3/5 174/3/5 173/3/5
f 179/3/5 176/3/5 175/3/5
f 180/3/5 176/3/5 179/3/5
f 181/3/5 176/3/5 180/3/5
f 182/1/5 156/1/5 176/1/5
f 182/3/5 176/3/5 181/3/5
f 184/1/5 179/1/5 178/1/5
f 184/1/5 180/1/5 179/1/5
f 185/1/5 180/1/5 184/1/5
f 185/1/5 184/1/5 183/1/5
f 186/3/5 181/3/5 180/3/5
f 186/1/5 180/1/5 185/1/5
f 187/1/5 182/1/5 181/1/5
f 187/3/5 181/3/5 186/3/5
f 188/1/5 156/1/5 182/1/5
f 188/1/5 182/1/5 187/1/5
f 189/1/5 185/1/5 183/1/5
f 190/1/5 185/1/5 189/1/5
f 191/3/5 187/3/5 186/3/5
f 191/1/5 185/1/5 190/1/5
f 191/3/5 186/3/5 185/3/5
f 191/3/5 188/3/5 187/3/5
f 192/3/5 188/3/5 191/3/5
f 193/3/5 188/3/5 192/3/5
f 194/1/5 156/1/5 188/1/5
f 194/3/5 188/3/5 193/3/5
f 196/1/5 191/1/5 190/1/5
f 196/1/5 192/1/5 191/1/5
f 197/1/5 192/1/5 196/1/5
f 198/3/5 193/3/5 192/3/5
f 198/1/5 192/1/5 197/1/5
f 199/1/5 194/1/5 193/1/5
f 199/3/5 193/3/5 198/3/5
f 200/1/5 156/1/5 194/1/5
f 200/1/5 194/1/5 199/1/5
f 201/1/5 197/1/5 196/1/5
f 201/3/5 199/3/5 198/3/5
f 201/3/5 200/3/5 199/3/5
f 201/1/5 196/1/5 195/1/5
f 201/3/5 198/3/5 197/3/5
f 202/3/5 200/3/5 201/3/5
f 203/3/5 200/3/5 202/3/5
f 204/1/5 156/1/5 200/1/5
f 204/3/5 200/3/5 203/3/5
f 205/1/5 201/1/5 195/1/5
f 205/1/5 202/1/5 201/1/5
f 206/1/5 202/1/5 205/1/5
f 207/1/5 202/1/5 206/1/5
f 208/3/5 203/3/5 202/3/5
f 208/1/5 202/1/5 207/1/5
f 209/1/5 204/1/5 203/1/5
f 209/3/5 203/3/5 208/3/5
f 210/1/5 156/1/5 204/1/5
f 210/1/5 204/1/5 209/1/5
f 212/1/5 207/1/5 206/1/5
f 213/3/5 210/3/5 209/3/5
f 213/3/5 209/3/5 208/3/5
f 213/1/5 207/1/5 212/1/5
f 213/3/5 208/3/5 207/3/5
f 214/3/5 210/3/5 213/3/5
f 215/3/5 210/3/5 214/3/5
f 216/1/5 156/1/5 210/1/5
f 216/3/5 210/3/5 215/3/5
f 217/1/5 212/1/5 211/1/5
f 217/1/5 213/1/5 212/1/5
f 217/1/5 214/1/5 213/1/5
f 218/3/5 215/3/5 214/3/5
f 218/1/5 214/1/5 217/1/5
f 219/1/5 216/1/5 215/1/5
f 219/3/5 215/3/5 218/3/5
f 220/1/5 156/1/5 216/1/5
f 220/1/5 216/1/5 219/1/5
f 221/1/5 217/1/5 211/1/5
f 222/3/5 219/3/5 218/3/5
f 222/1/5 217/1/5 221/1/5
f 222/3/5 218/3/5 217/3/5
f 222/3/5 220/3/5 219/3/5
f 223/1/5 156/1/5 220/1/5
f 223/3/5 220/3/5 222/3/5
f 224/1/5 156/1/5 223/1/5
f 226/1/6 227/1/6 230/1/6
f 227/3/6 228/3/6 231/3/6
f 230/1/6 227/1/6 231/1/6
f 228/1/6 229/1/6 232/1/6
f 231/3/6 228/3/6 232/3/6
f 232/1/6 229/1/6 233/1/6
f 225/2/6 226/2/6 234/2/6
f 226/1/6 230/1/6 235/1/6
f 234/2/6 226/2/6 235/2/6
f 235/1/6 230/1/6 236/1/6
f 230/3/6 231/3/6 237/3/6
f 236/1/6 230/1/6 237/1/6
f 232/3/6 233/3/6 237/3/6
f 231/3/6 232/3/6 237/3/6
f 237/3/6 233/3/6 238/3/6
f 238/3/6 233/3/6 239/3/6
f 233/1/6 229/1/6 240/1/6
f 239/3/6 233/3/6 240/3/6
f 236/1/6 237/1/6 243/1/6
f 237/1/6 238/1/6 243/1/6
f 243/1/6 238/1/6 244/1/6
f 242/1/6 243/1/6 244/1/6
f 238/3/6 239/3/6 245/3/6
f 244/1/6 238/1/6 245/1/6
f 239/1/6 240/1/6 246/1/6
f 245/3/6 239/3/6 246/3/6
f 240/1/6 229/1/6 247/1/6
f 246/1/6 240/1/6 247/1/6
f 241/2/6 242/2/6 248/2/6
f 242/1/6 244/1/6 249/1/6
f 248/2/6 242/2/6 249/2/6
f 249/1/6 244/1/6 250/1/6
f 245/3/6 246/3/6 251/3/6
f 250/1/6 244/1/6 251/1/6
f 244/3/6 245/3/6 251/3/6
f 246/3/6 247/3/6 251/3/6
f 251/3/6 247/3/6 252/3/6
f 252/3/6 247/3/6 253/3/6
f 247/1/6 229/1/6 254/1/6
f 253/3/6 247/3/6 254/3/6
f 250/1/6 251/1/6 257/1/6
f 251/1/6 252/1/6 257/1/6
f 257/1/6 252/1/6 258/1/6
f 252/3/6 253/3/6 259/3/6
f 258/1/6 252/1/6 259/1/6
f 253/1/6 254/1/6 260/1/6
f 259/3/6 253/3/6 260/3/6
f 254/1/6 229/1/6 261/1/6
f 260/1/6 254/1/6 261/1/6
f 257/1/6 258/1/6 262/1/6
f 259/3/6 260/3/6 262/3/6
f 260/3/6 261/3/6 262/3/6
f 256/1/6 257/1/6 262/1/6
f 258/3/6 259/3/6 262/3/6
f 262/3/6 261/3/6 263/3/6
f 263/3/6 261/3/6 264/3/6
f 261/1/6 229/1/6 265/1/6
f 264/3/6 261/3/6 265/3/6
f 255/2/6 256/2/6 266/2/6
f 256/1/6 262/1/6 267/1/6
f 266/2/6 256/2/6 267/2/6
f 262/1/6 263/1/6 267/1/6
f 267/1/6 263/1/6 268/1/6
f 268/1/6 263/1/6 269/1/6
f 263/3/6 264/3/6 270/3/6
f 269/1/6 263/1/6 270/1/6
f 264/1/6 265/1/6 271/1/6
f 270/3/6 264/3/6 271/3/6
f 265/1/6 229/1/6 272/1/6
f 271/1/6 265/1/6 272/1/6
f 268/1/6 269/1/6 275/1/6
f 270/3/6 271/3/6 276/3/6
f 274/1/6 275/1/6 276/1/6
f 275/1/6 269/1/6 276/1/6
f 269/3/6 270/3/6 276/3/6
f 271/3/6 272/3/6 276/3/6
f 276/3/6 272/3/6 277/3/6
f 277/3/6 272/3/6 278/3/6
f 272/1/6 229/1/6 279/1/6
f 278/3/6 272/3/6 279/3/6
f 273/2/6 274/2/6 280/2/6
f 274/1/6 276/1/6 281/1/6
f 280/2/6 274/2/6 281/2/6
f 276/1/6 277/1/6 281/1/6
f 281/1/6 277/1/6 282/1/6
f 282/1/6 277/1/6 283/1/6
f 277/3/6 278/3/6 284/3/6
f 283/1/6 277/1/6 284/1/6
f 278/1/6 279/1/6 285/1/6
f 284/3/6 278/3/6 285/3/6
f 279/1/6 229/1/6 286/1/6
f 285/1/6 279/1/6 286/1/6
f 282/1/6 283/1/6 289/1/6
f 284/3/6 285/3/6 290/3/6
f 283/3/6 284/3/6 290/3/6
f 289/1/6 283/1/6 290/1/6
f 285/3/6 286/3/6 290/3/6
f 290/3/6 286/3/6 291/3/6
f 291/3/6 286/3/6 292/3/6
f 286/1/6 229/1/6 293/1/6
f 292/3/6 286/3/6 293/3/6
f 287/2/6 288/2/6 294/2/6
f 288/1/6 289/1/6 295/1/6
f 294/2/6 288/2/6 295/2/6
f 289/1/6 290/1/6 295/1/6
f 290/1/6 291/1/6 295/1/6
f 291/3/6 292/3/6 296/3/6
f 295/1/6 291/1/6 296/1/6
f 292/1/6 293/1/6 297/1/6
f 296/3/6 292/3/6 297/3/6
f 293/1/6 229/1/6 298/1/6
f 297/1/6 293/1/6 298/1/6
