# MagicaVoxel @ Ephtracy

# group
o 

# material
mtllib untitled-3.mtl
usemtl palette

# normals
vn -1 0 0
vn 1 0 0
vn 0 0 1
vn 0 0 -1
vn 0 -1 0
vn 0 1 0

# texcoords
vt 0.533203 0.5
vt 0.908203 0.5
vt 0.986328 0.5

# verts
v -1.4 1.3 -0.1
v -1.4 1.3 -1.7
v -1.4 3 -0.1
v -1.4 3 -1.7
v -0.9 0 -0.6
v -0.9 0 -1.2
v -0.9 0.1 -0.6
v -0.9 0.1 -1.2
v -0.8 0.1 -0.7
v -0.8 0.1 -1.1
v -0.8 1.3 -0.7
v -0.8 1.3 -1.1
v -0.4 0.1 -0.7
v -0.4 0.1 -1.1
v -0.4 1.3 -0.7
v -0.4 1.3 -1.1
v -0.3 0 -0.6
v -0.3 0 -1.2
v -0.3 0.1 -0.6
v -0.3 0.1 -1.2
v 0.2 1.3 -0.1
v 0.2 1.3 -1.7
v 0.2 3 -0.1
v 0.2 3 -1.7
v -1.4 1.3 -0.1
v -1.4 3 -0.1
v 0.2 1.3 -0.1
v 0.2 3 -0.1
v -0.9 0 -0.6
v -0.9 0.1 -0.6
v -0.3 0 -0.6
v -0.3 0.1 -0.6
v -0.8 0.1 -0.7
v -0.8 1.3 -0.7
v -0.4 0.1 -0.7
v -0.4 1.3 -0.7
v -0.8 0.1 -1.1
v -0.8 1.3 -1.1
v -0.4 0.1 -1.1
v -0.4 1.3 -1.1
v -0.9 0 -1.2
v -0.9 0.1 -1.2
v -0.3 0 -1.2
v -0.3 0.1 -1.2
v -1.4 1.3 -1.7
v -1.4 3 -1.7
v 0.2 1.3 -1.7
v 0.2 3 -1.7
v -0.9 0 -0.6
v -0.3 0 -0.6
v -0.9 0 -1.2
v -0.3 0 -1.2
v -1.4 1.3 -0.1
v 0.2 1.3 -0.1
v -0.8 1.3 -0.7
v -0.4 1.3 -0.7
v -0.8 1.3 -1.1
v -0.4 1.3 -1.1
v -1.4 1.3 -1.7
v 0.2 1.3 -1.7
v -0.9 0.1 -0.6
v -0.3 0.1 -0.6
v -0.8 0.1 -0.7
v -0.4 0.1 -0.7
v -0.8 0.1 -1.1
v -0.4 0.1 -1.1
v -0.9 0.1 -1.2
v -0.3 0.1 -1.2
v -1.4 3 -0.1
v 0.2 3 -0.1
v -1.4 3 -1.7
v 0.2 3 -1.7

# faces
f 3/2/1 2/2/1 1/2/1
f 4/2/1 2/2/1 3/2/1
f 7/2/1 6/2/1 5/2/1
f 8/2/1 6/2/1 7/2/1
f 11/1/1 10/1/1 9/1/1
f 12/1/1 10/1/1 11/1/1
f 13/1/2 14/1/2 15/1/2
f 15/1/2 14/1/2 16/1/2
f 17/2/2 18/2/2 19/2/2
f 19/2/2 18/2/2 20/2/2
f 21/2/2 22/2/2 23/2/2
f 23/2/2 22/2/2 24/2/2
f 27/2/3 26/2/3 25/2/3
f 28/2/3 26/2/3 27/2/3
f 31/2/3 30/2/3 29/2/3
f 32/2/3 30/2/3 31/2/3
f 35/1/3 34/1/3 33/1/3
f 36/1/3 34/1/3 35/1/3
f 37/1/4 38/1/4 39/1/4
f 39/1/4 38/1/4 40/1/4
f 41/2/4 42/2/4 43/2/4
f 43/2/4 42/2/4 44/2/4
f 45/2/4 46/2/4 47/2/4
f 47/2/4 46/2/4 48/2/4
f 51/2/5 50/2/5 49/2/5
f 52/2/5 50/2/5 51/2/5
f 55/2/5 54/2/5 53/2/5
f 56/2/5 54/2/5 55/2/5
f 57/2/5 55/2/5 53/2/5
f 58/2/5 54/2/5 56/2/5
f 59/2/5 57/2/5 53/2/5
f 59/2/5 58/2/5 57/2/5
f 60/2/5 54/2/5 58/2/5
f 60/2/5 58/2/5 59/2/5
f 61/2/6 62/2/6 63/2/6
f 63/2/6 62/2/6 64/2/6
f 61/2/6 63/2/6 65/2/6
f 64/2/6 62/2/6 66/2/6
f 61/2/6 65/2/6 67/2/6
f 65/2/6 66/2/6 67/2/6
f 66/2/6 62/2/6 68/2/6
f 67/2/6 66/2/6 68/2/6
f 69/2/6 70/2/6 71/2/6
f 71/2/6 70/2/6 72/2/6
