# MagicaVoxel @ Ephtracy

# group
o 

# material
mtllib PlayerFull-1.mtl
usemtl palette

# normals
vn -1 0 0
vn 1 0 0
vn 0 0 1
vn 0 0 -1
vn 0 -1 0
vn 0 1 0

# texcoords
vt 0.00195313 0.5
vt 0.00585938 0.5
vt 0.0332031 0.5
vt 0.306641 0.5
vt 0.564453 0.5
vt 0.720703 0.5
vt 0.845703 0.5
vt 0.876953 0.5
vt 0.970703 0.5
vt 0.994141 0.5

# verts
v 4.9 0.9 0.1
v 4.9 0.9 -0.3
v 4.9 1.5 0.1
v 4.9 1.5 -0.3
v 5.2 0.2 0.7
v 5.2 0.2 0.6
v 5.2 0.2 -1
v 5.2 0.4 0.7
v 5.2 0.4 0.6
v 5.2 0.6 0.6
v 5.2 0.6 -0.1
v 5.2 0.7 -0.1
v 5.2 0.7 -0.3
v 5.2 0.8 -0.3
v 5.2 0.8 -0.4
v 5.2 0.9 0.1
v 5.2 0.9 -0.3
v 5.2 1.5 0.1
v 5.2 1.5 -0.3
v 5.2 1.5 -0.4
v 5.2 1.6 0.2
v 5.2 1.6 0.1
v 5.2 1.7 0.7
v 5.2 1.7 0.2
v 5.2 1.8 1
v 5.2 1.8 0.7
v 5.2 2.1 1
v 5.2 2.1 -1
v 5.6 0 0.3
v 5.6 0 -0.6
v 5.6 0.2 0.3
v 5.6 0.2 -0.6
v 5.7 1.7 1
v 5.7 1.7 0.7
v 5.7 1.8 1
v 5.7 1.8 0.7
v 5.8 1.6 1
v 5.8 1.6 0.7
v 5.8 1.7 1
v 5.8 1.7 0.7
v 6 0.8 0.8
v 6 0.8 0.7
v 6 0.9 0.8
v 6 0.9 0.7
v 6 1.5 1
v 6 1.5 0.7
v 6 1.6 1
v 6 1.6 0.7
v 6.1 0.9 0.8
v 6.1 0.9 0.7
v 6.1 1 0.8
v 6.1 1 0.7
v 6.3 0.9 0.8
v 6.3 0.9 0.7
v 6.3 1 0.8
v 6.3 1 0.7
v 6.4 0.8 0.8
v 6.4 0.8 0.7
v 6.4 0.9 0.8
v 6.4 0.9 0.7
v 6.4 1.5 1
v 6.4 1.5 0.7
v 6.4 1.6 1
v 6.4 1.6 0.7
v 6.6 1.6 1
v 6.6 1.6 0.7
v 6.6 1.7 1
v 6.6 1.7 0.7
v 6.7 1.7 1
v 6.7 1.7 0.7
v 6.7 1.8 1
v 6.7 1.8 0.7
v 6.8 0 0.3
v 6.8 0 -0.6
v 6.8 0.2 0.3
v 6.8 0.2 -0.6
v 7.2 0.2 0.7
v 7.2 0.2 0.6
v 7.2 0.2 -1
v 7.2 0.3 0.7
v 7.2 0.3 0.6
v 7.2 0.6 0.6
v 7.2 0.6 -0.2
v 7.2 0.7 -0.2
v 7.2 0.7 -0.3
v 7.2 0.8 -0.3
v 7.2 0.8 -0.4
v 7.2 0.9 0.1
v 7.2 0.9 -0.3
v 7.2 1.5 0.1
v 7.2 1.5 -0.3
v 7.2 1.5 -0.4
v 7.2 1.6 0.2
v 7.2 1.6 0.1
v 7.2 1.7 0.7
v 7.2 1.7 0.2
v 7.2 1.8 1
v 7.2 1.8 0.7
v 7.2 2.1 1
v 7.2 2.1 -1
v 7.5 0.9 0.1
v 7.5 0.9 -0.3
v 7.5 1.5 0.1
v 7.5 1.5 -0.3
v 5.2 1.8 1
v 5.2 2.1 1
v 5.7 1.7 1
v 5.7 1.8 1
v 5.8 1.6 1
v 5.8 1.7 1
v 6 1.5 1
v 6 1.6 1
v 6.4 1.5 1
v 6.4 1.6 1
v 6.6 1.6 1
v 6.6 1.7 1
v 6.7 1.7 1
v 6.7 1.8 1
v 7.2 1.8 1
v 7.2 2.1 1
v 6 0.8 0.8
v 6 0.9 0.8
v 6.1 0.9 0.8
v 6.1 1 0.8
v 6.3 0.9 0.8
v 6.3 1 0.8
v 6.4 0.8 0.8
v 6.4 0.9 0.8
v 5.2 0.2 0.7
v 5.2 0.4 0.7
v 5.2 1.7 0.7
v 5.2 1.8 0.7
v 5.4 1.2 0.7
v 5.4 1.4 0.7
v 5.6 1 0.7
v 5.6 1.2 0.7
v 5.7 1.7 0.7
v 5.7 1.8 0.7
v 5.8 0.4 0.7
v 5.8 0.5 0.7
v 5.8 1.6 0.7
v 5.8 1.7 0.7
v 5.9 0.3 0.7
v 5.9 0.4 0.7
v 5.9 1 0.7
v 5.9 1.2 0.7
v 6 0.3 0.7
v 6 0.4 0.7
v 6 0.5 0.7
v 6 0.6 0.7
v 6 0.8 0.7
v 6 0.9 0.7
v 6 1.2 0.7
v 6 1.4 0.7
v 6 1.5 0.7
v 6 1.6 0.7
v 6.1 0.3 0.7
v 6.1 0.4 0.7
v 6.1 0.5 0.7
v 6.1 0.9 0.7
v 6.1 1 0.7
v 6.2 0.3 0.7
v 6.2 0.4 0.7
v 6.2 0.5 0.7
v 6.3 0.3 0.7
v 6.3 0.4 0.7
v 6.3 0.5 0.7
v 6.3 0.9 0.7
v 6.3 1 0.7
v 6.4 0.3 0.7
v 6.4 0.4 0.7
v 6.4 0.5 0.7
v 6.4 0.8 0.7
v 6.4 0.9 0.7
v 6.4 1.2 0.7
v 6.4 1.4 0.7
v 6.4 1.5 0.7
v 6.4 1.6 0.7
v 6.5 0.3 0.7
v 6.5 0.4 0.7
v 6.5 0.5 0.7
v 6.5 0.6 0.7
v 6.5 1 0.7
v 6.5 1.2 0.7
v 6.6 0.3 0.7
v 6.6 0.4 0.7
v 6.6 1.6 0.7
v 6.6 1.7 0.7
v 6.7 0.4 0.7
v 6.7 0.5 0.7
v 6.7 1.7 0.7
v 6.7 1.8 0.7
v 6.8 1 0.7
v 6.8 1.2 0.7
v 7 1.2 0.7
v 7 1.4 0.7
v 7.1 0.3 0.7
v 7.1 0.4 0.7
v 7.2 0.2 0.7
v 7.2 0.3 0.7
v 7.2 1.7 0.7
v 7.2 1.8 0.7
v 5.6 0 0.3
v 5.6 0.2 0.3
v 6.8 0 0.3
v 6.8 0.2 0.3
v 4.9 0.9 0.1
v 4.9 1.5 0.1
v 5.2 0.9 0.1
v 5.2 1.5 0.1
v 7.2 0.9 0.1
v 7.2 1.5 0.1
v 7.5 0.9 0.1
v 7.5 1.5 0.1
v 4.9 0.9 -0.3
v 4.9 1.5 -0.3
v 5.2 0.9 -0.3
v 5.2 1.5 -0.3
v 7.2 0.9 -0.3
v 7.2 1.5 -0.3
v 7.5 0.9 -0.3
v 7.5 1.5 -0.3
v 5.6 0 -0.6
v 5.6 0.2 -0.6
v 6.8 0 -0.6
v 6.8 0.2 -0.6
v 5.2 0.2 -1
v 5.2 2.1 -1
v 7.2 0.2 -1
v 7.2 2.1 -1
v 5.6 0 0.3
v 6.8 0 0.3
v 5.6 0 -0.6
v 6.8 0 -0.6
v 5.2 0.2 0.7
v 7.2 0.2 0.7
v 5.2 0.2 0.6
v 5.3 0.2 0.6
v 7.1 0.2 0.6
v 7.2 0.2 0.6
v 5.6 0.2 0.3
v 6.8 0.2 0.3
v 5.6 0.2 -0.6
v 6.8 0.2 -0.6
v 5.3 0.2 -0.9
v 7.1 0.2 -0.9
v 5.2 0.2 -1
v 7.2 0.2 -1
v 6 0.8 0.8
v 6.4 0.8 0.8
v 6 0.8 0.7
v 6.4 0.8 0.7
v 4.9 0.9 0.1
v 5.2 0.9 0.1
v 7.2 0.9 0.1
v 7.5 0.9 0.1
v 4.9 0.9 -0.3
v 5.2 0.9 -0.3
v 7.2 0.9 -0.3
v 7.5 0.9 -0.3
v 6 1.5 1
v 6.4 1.5 1
v 6 1.5 0.7
v 6.4 1.5 0.7
v 5.8 1.6 1
v 6 1.6 1
v 6.4 1.6 1
v 6.6 1.6 1
v 5.8 1.6 0.7
v 6 1.6 0.7
v 6.4 1.6 0.7
v 6.6 1.6 0.7
v 5.7 1.7 1
v 5.8 1.7 1
v 6.6 1.7 1
v 6.7 1.7 1
v 5.7 1.7 0.7
v 5.8 1.7 0.7
v 6.6 1.7 0.7
v 6.7 1.7 0.7
v 5.2 1.8 1
v 5.7 1.8 1
v 6.7 1.8 1
v 7.2 1.8 1
v 5.2 1.8 0.7
v 5.7 1.8 0.7
v 6.7 1.8 0.7
v 7.2 1.8 0.7
v 6 0.9 0.8
v 6.1 0.9 0.8
v 6.3 0.9 0.8
v 6.4 0.9 0.8
v 6 0.9 0.7
v 6.1 0.9 0.7
v 6.3 0.9 0.7
v 6.4 0.9 0.7
v 6.1 1 0.8
v 6.3 1 0.8
v 6.1 1 0.7
v 6.3 1 0.7
v 4.9 1.5 0.1
v 5.2 1.5 0.1
v 7.2 1.5 0.1
v 7.5 1.5 0.1
v 4.9 1.5 -0.3
v 5.2 1.5 -0.3
v 7.2 1.5 -0.3
v 7.5 1.5 -0.3
v 5.2 2.1 1
v 7.2 2.1 1
v 5.2 2.1 -1
v 7.2 2.1 -1

# faces
f 3/6/1 2/6/1 1/6/1
f 4/6/1 2/6/1 3/6/1
f 8/7/1 6/7/1 5/7/1
f 9/9/1 7/9/1 6/9/1
f 9/7/1 6/7/1 8/7/1
f 10/6/1 9/6/1 8/6/1
f 10/9/1 7/9/1 9/9/1
f 11/9/1 7/9/1 10/9/1
f 12/6/1 11/6/1 10/6/1
f 12/9/1 7/9/1 11/9/1
f 13/9/1 7/9/1 12/9/1
f 14/6/1 13/6/1 12/6/1
f 14/9/1 7/9/1 13/9/1
f 15/9/1 7/9/1 14/9/1
f 16/6/1 12/6/1 10/6/1
f 16/6/1 14/6/1 12/6/1
f 16/6/1 15/6/1 14/6/1
f 17/6/1 15/6/1 16/6/1
f 18/6/1 16/6/1 10/6/1
f 19/6/1 15/6/1 17/6/1
f 20/9/1 7/9/1 15/9/1
f 20/6/1 15/6/1 19/6/1
f 21/6/1 18/6/1 10/6/1
f 22/9/1 19/9/1 18/9/1
f 22/6/1 18/6/1 21/6/1
f 22/9/1 20/9/1 19/9/1
f 23/6/1 10/6/1 8/6/1
f 23/6/1 21/6/1 10/6/1
f 24/9/1 22/9/1 21/9/1
f 24/6/1 21/6/1 23/6/1
f 26/9/1 24/9/1 23/9/1
f 27/9/1 26/9/1 25/9/1
f 28/9/1 20/9/1 22/9/1
f 28/9/1 26/9/1 27/9/1
f 28/9/1 7/9/1 20/9/1
f 28/9/1 24/9/1 26/9/1
f 28/9/1 22/9/1 24/9/1
f 31/6/1 30/6/1 29/6/1
f 32/6/1 30/6/1 31/6/1
f 35/9/1 34/9/1 33/9/1
f 36/9/1 34/9/1 35/9/1
f 39/9/1 38/9/1 37/9/1
f 40/9/1 38/9/1 39/9/1
f 43/6/1 42/6/1 41/6/1
f 44/6/1 42/6/1 43/6/1
f 47/9/1 46/9/1 45/9/1
f 48/9/1 46/9/1 47/9/1
f 51/6/1 50/6/1 49/6/1
f 52/6/1 50/6/1 51/6/1
f 53/6/2 54/6/2 55/6/2
f 55/6/2 54/6/2 56/6/2
f 57/6/2 58/6/2 59/6/2
f 59/6/2 58/6/2 60/6/2
f 61/9/2 62/9/2 63/9/2
f 63/9/2 62/9/2 64/9/2
f 65/9/2 66/9/2 67/9/2
f 67/9/2 66/9/2 68/9/2
f 69/9/2 70/9/2 71/9/2
f 71/9/2 70/9/2 72/9/2
f 73/6/2 74/6/2 75/6/2
f 75/6/2 74/6/2 76/6/2
f 77/7/2 78/7/2 80/7/2
f 78/9/2 79/9/2 81/9/2
f 80/7/2 78/7/2 81/7/2
f 80/6/2 81/6/2 82/6/2
f 81/9/2 79/9/2 82/9/2
f 82/9/2 79/9/2 83/9/2
f 82/6/2 83/6/2 84/6/2
f 83/9/2 79/9/2 84/9/2
f 84/9/2 79/9/2 85/9/2
f 84/6/2 85/6/2 86/6/2
f 85/9/2 79/9/2 86/9/2
f 86/9/2 79/9/2 87/9/2
f 82/6/2 84/6/2 88/6/2
f 84/6/2 86/6/2 88/6/2
f 86/6/2 87/6/2 88/6/2
f 88/6/2 87/6/2 89/6/2
f 82/6/2 88/6/2 90/6/2
f 89/6/2 87/6/2 91/6/2
f 87/9/2 79/9/2 92/9/2
f 91/6/2 87/6/2 92/6/2
f 82/6/2 90/6/2 93/6/2
f 90/9/2 91/9/2 94/9/2
f 93/6/2 90/6/2 94/6/2
f 91/9/2 92/9/2 94/9/2
f 80/6/2 82/6/2 95/6/2
f 82/6/2 93/6/2 95/6/2
f 93/9/2 94/9/2 96/9/2
f 95/6/2 93/6/2 96/6/2
f 95/9/2 96/9/2 98/9/2
f 97/9/2 98/9/2 99/9/2
f 94/9/2 92/9/2 100/9/2
f 99/9/2 98/9/2 100/9/2
f 92/9/2 79/9/2 100/9/2
f 98/9/2 96/9/2 100/9/2
f 96/9/2 94/9/2 100/9/2
f 101/6/2 102/6/2 103/6/2
f 103/6/2 102/6/2 104/6/2
f 108/9/3 106/9/3 105/9/3
f 110/9/3 108/9/3 107/9/3
f 112/9/3 110/9/3 109/9/3
f 113/9/3 112/9/3 111/9/3
f 114/9/3 110/9/3 112/9/3
f 114/9/3 112/9/3 113/9/3
f 115/9/3 110/9/3 114/9/3
f 116/9/3 108/9/3 110/9/3
f 116/9/3 110/9/3 115/9/3
f 117/9/3 108/9/3 116/9/3
f 118/9/3 106/9/3 108/9/3
f 118/9/3 108/9/3 117/9/3
f 119/9/3 106/9/3 118/9/3
f 120/9/3 106/9/3 119/9/3
f 123/6/3 122/6/3 121/6/3
f 125/6/3 123/6/3 121/6/3
f 125/6/3 124/6/3 123/6/3
f 126/6/3 124/6/3 125/6/3
f 127/6/3 125/6/3 121/6/3
f 128/6/3 125/6/3 127/6/3
f 133/6/3 131/6/3 130/6/3
f 134/6/3 131/6/3 133/6/3
f 135/6/3 133/6/3 130/6/3
f 136/9/3 134/9/3 133/9/3
f 136/6/3 133/6/3 135/6/3
f 137/9/3 132/9/3 131/9/3
f 137/6/3 131/6/3 134/6/3
f 138/9/3 132/9/3 137/9/3
f 139/7/3 130/7/3 129/7/3
f 139/6/3 135/6/3 130/6/3
f 140/6/3 135/6/3 139/6/3
f 141/6/3 137/6/3 134/6/3
f 142/6/3 137/6/3 141/6/3
f 143/7/3 139/7/3 129/7/3
f 143/7/3 140/7/3 139/7/3
f 144/7/3 140/7/3 143/7/3
f 145/5/3 136/5/3 135/5/3
f 145/6/3 135/6/3 140/6/3
f 146/9/3 134/9/3 136/9/3
f 146/5/3 136/5/3 145/5/3
f 147/2/3 144/2/3 143/2/3
f 147/7/3 143/7/3 129/7/3
f 148/7/3 140/7/3 144/7/3
f 148/2/3 144/2/3 147/2/3
f 149/6/3 145/6/3 140/6/3
f 149/7/3 140/7/3 148/7/3
f 149/6/3 146/6/3 145/6/3
f 150/6/3 146/6/3 149/6/3
f 151/6/3 146/6/3 150/6/3
f 152/6/3 146/6/3 151/6/3
f 153/9/3 134/9/3 146/9/3
f 153/6/3 146/6/3 152/6/3
f 154/6/3 141/6/3 134/6/3
f 154/9/3 134/9/3 153/9/3
f 155/6/3 141/6/3 154/6/3
f 156/6/3 141/6/3 155/6/3
f 157/7/3 148/7/3 147/7/3
f 157/7/3 147/7/3 129/7/3
f 158/2/3 149/2/3 148/2/3
f 158/7/3 148/7/3 157/7/3
f 159/7/3 150/7/3 149/7/3
f 159/2/3 149/2/3 158/2/3
f 160/6/3 155/6/3 154/6/3
f 160/6/3 154/6/3 153/6/3
f 160/6/3 153/6/3 152/6/3
f 161/6/3 155/6/3 160/6/3
f 162/7/3 157/7/3 129/7/3
f 162/2/3 158/2/3 157/2/3
f 163/7/3 159/7/3 158/7/3
f 163/2/3 158/2/3 162/2/3
f 164/7/3 150/7/3 159/7/3
f 164/7/3 159/7/3 163/7/3
f 165/7/3 163/7/3 162/7/3
f 165/7/3 162/7/3 129/7/3
f 166/2/3 164/2/3 163/2/3
f 166/7/3 163/7/3 165/7/3
f 167/7/3 150/7/3 164/7/3
f 167/2/3 164/2/3 166/2/3
f 169/6/3 155/6/3 161/6/3
f 170/2/3 166/2/3 165/2/3
f 170/7/3 165/7/3 129/7/3
f 171/7/3 167/7/3 166/7/3
f 171/2/3 166/2/3 170/2/3
f 172/7/3 150/7/3 167/7/3
f 172/7/3 167/7/3 171/7/3
f 173/6/3 151/6/3 150/6/3
f 174/6/3 169/6/3 168/6/3
f 175/6/3 155/6/3 169/6/3
f 175/6/3 169/6/3 174/6/3
f 176/6/3 155/6/3 175/6/3
f 177/6/3 155/6/3 176/6/3
f 179/7/3 171/7/3 170/7/3
f 179/7/3 170/7/3 129/7/3
f 180/1/3 172/1/3 171/1/3
f 180/7/3 171/7/3 179/7/3
f 181/7/3 150/7/3 172/7/3
f 181/1/3 172/1/3 180/1/3
f 182/6/3 173/6/3 150/6/3
f 182/7/3 150/7/3 181/7/3
f 182/6/3 174/6/3 173/6/3
f 182/6/3 175/6/3 174/6/3
f 183/6/3 175/6/3 182/6/3
f 184/9/3 176/9/3 175/9/3
f 184/6/3 175/6/3 183/6/3
f 185/1/3 180/1/3 179/1/3
f 185/7/3 179/7/3 129/7/3
f 186/7/3 181/7/3 180/7/3
f 186/1/3 180/1/3 185/1/3
f 187/6/3 178/6/3 177/6/3
f 187/6/3 177/6/3 176/6/3
f 189/7/3 181/7/3 186/7/3
f 189/7/3 186/7/3 185/7/3
f 190/6/3 183/6/3 182/6/3
f 190/7/3 181/7/3 189/7/3
f 190/6/3 182/6/3 181/6/3
f 191/6/3 188/6/3 187/6/3
f 193/6/3 183/6/3 190/6/3
f 193/5/3 184/5/3 183/5/3
f 193/6/3 190/6/3 189/6/3
f 194/9/3 176/9/3 184/9/3
f 194/5/3 184/5/3 193/5/3
f 195/6/3 194/6/3 193/6/3
f 195/9/3 176/9/3 194/9/3
f 196/6/3 187/6/3 176/6/3
f 196/9/3 176/9/3 195/9/3
f 196/6/3 191/6/3 187/6/3
f 197/7/3 185/7/3 129/7/3
f 197/7/3 189/7/3 185/7/3
f 198/6/3 195/6/3 193/6/3
f 198/7/3 189/7/3 197/7/3
f 198/6/3 196/6/3 195/6/3
f 198/6/3 193/6/3 189/6/3
f 199/7/3 197/7/3 129/7/3
f 200/6/3 198/6/3 197/6/3
f 200/7/3 197/7/3 199/7/3
f 201/6/3 196/6/3 198/6/3
f 201/6/3 198/6/3 200/6/3
f 201/6/3 191/6/3 196/6/3
f 201/9/3 192/9/3 191/9/3
f 202/9/3 192/9/3 201/9/3
f 205/6/3 204/6/3 203/6/3
f 206/6/3 204/6/3 205/6/3
f 209/6/3 208/6/3 207/6/3
f 210/6/3 208/6/3 209/6/3
f 213/6/3 212/6/3 211/6/3
f 214/6/3 212/6/3 213/6/3
f 215/6/4 216/6/4 217/6/4
f 217/6/4 216/6/4 218/6/4
f 219/6/4 220/6/4 221/6/4
f 221/6/4 220/6/4 222/6/4
f 223/6/4 224/6/4 225/6/4
f 225/6/4 224/6/4 226/6/4
f 227/9/4 228/9/4 229/9/4
f 229/9/4 228/9/4 230/9/4
f 233/6/5 232/6/5 231/6/5
f 234/6/5 232/6/5 233/6/5
f 237/7/5 236/7/5 235/7/5
f 238/7/5 236/7/5 237/7/5
f 239/7/5 236/7/5 238/7/5
f 240/7/5 236/7/5 239/7/5
f 241/6/5 239/6/5 238/6/5
f 242/6/5 239/6/5 241/6/5
f 243/6/5 241/6/5 238/6/5
f 244/6/5 239/6/5 242/6/5
f 245/9/5 238/9/5 237/9/5
f 245/6/5 244/6/5 243/6/5
f 245/6/5 243/6/5 238/6/5
f 246/6/5 239/6/5 244/6/5
f 246/6/5 244/6/5 245/6/5
f 246/9/5 240/9/5 239/9/5
f 247/9/5 245/9/5 237/9/5
f 247/9/5 246/9/5 245/9/5
f 248/9/5 240/9/5 246/9/5
f 248/9/5 246/9/5 247/9/5
f 251/6/5 250/6/5 249/6/5
f 252/6/5 250/6/5 251/6/5
f 257/6/5 254/6/5 253/6/5
f 258/6/5 254/6/5 257/6/5
f 259/6/5 256/6/5 255/6/5
f 260/6/5 256/6/5 259/6/5
f 263/9/5 262/9/5 261/9/5
f 264/9/5 262/9/5 263/9/5
f 269/9/5 266/9/5 265/9/5
f 270/9/5 266/9/5 269/9/5
f 271/9/5 268/9/5 267/9/5
f 272/9/5 268/9/5 271/9/5
f 277/9/5 274/9/5 273/9/5
f 278/9/5 274/9/5 277/9/5
f 279/9/5 276/9/5 275/9/5
f 280/9/5 276/9/5 279/9/5
f 285/9/5 282/9/5 281/9/5
f 286/9/5 282/9/5 285/9/5
f 287/9/5 284/9/5 283/9/5
f 288/9/5 284/9/5 287/9/5
f 289/6/6 290/6/6 293/6/6
f 293/6/6 290/6/6 294/6/6
f 291/6/6 292/6/6 295/6/6
f 295/6/6 292/6/6 296/6/6
f 297/6/6 298/6/6 299/6/6
f 299/6/6 298/6/6 300/6/6
f 301/6/6 302/6/6 305/6/6
f 305/6/6 302/6/6 306/6/6
f 303/6/6 304/6/6 307/6/6
f 307/6/6 304/6/6 308/6/6
f 309/9/6 310/9/6 311/9/6
f 311/9/6 310/9/6 312/9/6
